<svg width="2680" height="350" xmlns="http://www.w3.org/2000/svg"><g stroke="null" stroke-width=".1"><path d="M175.235 17.4c-.072.102-.113.31-.125.638-.137 3.252-.387 5.64-.858 8.26-2.483 13.789-10.137 28.774-23.097 45.236a222.797 222.797 0 0 1-5.837 7.087c-1.757 2.037-4.884 7.707-6.599 11.936-1.656 4.104-2.62 7.957-3.031 12.097-.143 1.43-.143 4.633-.006 6.015.34 3.282 1 6.04 2.168 8.988 4.02 10.184 13.335 19.362 28.04 27.623 1.84 1.037 3.836 2.079 6.432 3.36l2.621 1.298 1.995.679c12.99 4.443 23.27 8.993 32.341 14.294 14.485 8.475 24.264 18.362 29.107 29.434 3.007 6.867 4.163 14.312 3.436 22.156-.137 1.501-.363 3.103-.53 3.752a55.61 55.61 0 0 1-1.108 3.675c-5.306 15.849-17.075 26.331-35.312 31.46-4.48 1.262-9.226 2.173-14.622 2.805-1.424.166-3.091.19-5.956.089-12.263-.44-20.882-2.936-26.325-7.624-.697-.601-1.978-1.917-2.496-2.56-2.483-3.11-3.919-7.01-4.27-11.615-.102-1.334-.036-4.425.119-5.866.333-3.044.756-4.73 1.733-6.891 2.049-4.52 6.278-9.226 12.275-13.645.912-.673 1.037-.816 1.025-1.21a.715.715 0 0 0-.376-.589c-.417-.214-3.502-.93-5.378-1.25-2.513-.424-4.163-.567-6.533-.567-2.454 0-4.223.18-6.254.626-3.341.744-6.373 2.132-9.017 4.133-3.246 2.448-6.082 5.986-8.226 10.28-.44.87-.601 1.465-.917 3.395-.595 3.568-.625 6.76-.095 9.88 1.298 7.678 6.081 14.164 14.235 19.304 3.442 2.174 8.993 4.86 14.085 6.82 12.865 4.955 25.807 6.724 38.744 5.294 12.203-1.34 24.228-5.425 36.658-12.442.739-.417 1.93-1.084 2.65-1.488 13.42-7.499 22.937-16.647 28.363-27.255 2.626-5.134 4.252-10.327 5.045-16.075.375-2.746.482-4.395.482-7.683-.006-2.722-.042-3.58-.244-5.807-.768-8.463-3.306-17.808-7.487-27.606-.208-.494-.357-.9-.333-.911.071-.03 2.882 1.84 4.371 2.906 5.492 3.92 9.94 7.94 13.407 12.12 4.598 5.546 7.463 11.734 8.207 17.72.322 2.596.292 5.58-.083 8.177-.923 6.35-3.865 13.085-8.696 19.875-.59.834-.822 1.102-1.495 1.727-6.986 6.534-16.432 12.954-28.671 19.488-.947.512-2.972 1.56-4.497 2.34-6.76 3.455-12.27 6.505-19.655 10.888-11.769 6.98-27.224 16.873-42.692 27.332-1.15.78-2.108 1.417-2.12 1.417-.012 0-.81-.56-1.775-1.238-14.95-10.596-29.637-19.846-43.377-27.308-5.009-2.722-8.75-4.616-15.604-7.922-11.877-5.717-21.257-10.923-26.802-14.872-2.645-1.882-4.038-3.097-5.718-4.973-7.76-8.684-12.442-17.1-14.08-25.313-.762-3.853-.84-7.784-.208-11.554 1.715-10.316 8.529-20.208 20.542-29.815 2.162-1.728 6.432-4.872 6.623-4.878.042 0-.256.5-.661 1.113-4.45 6.772-7.803 13.46-9.863 19.673-3.788 11.405-3.633 21.87.458 31.447 5.248 12.281 16.975 23.032 35.158 32.234 3.18 1.608 3.931 1.953 4.217 1.953.465 0 .727-.298.727-.816a1.335 1.335 0 0 0-.108-.47c-.053-.101-.965-1.162-2.019-2.353-2.37-2.68-2.781-3.174-3.907-4.67-1.65-2.203-2.751-3.966-4.038-6.491-2.037-3.99-3.496-8.017-4.217-11.614-.595-2.978-.911-7.427-.78-11.078.197-5.456.762-8.094 2.865-13.383 1.28-3.217 3.442-7.666 4.92-10.113 4.115-6.808 8.767-12.24 14.83-17.302 2.49-2.08 5.372-4.14 8.028-5.73 2.9-1.74 7.005-3.64 9.947-4.604 3.508-1.15 8.445-2.102 13.573-2.62 3.02-.304 6.457-.316 9.804-.036 2.245.19 2.525.19 2.787.035.304-.184.44-.452.411-.798-.024-.25-.06-.327-.262-.512-.19-.185-.316-.238-.709-.322-.518-.107-1.411-.434-3.895-1.411-12.007-4.711-22.102-9.827-30.137-15.271-9.643-6.528-16.414-13.538-20.387-21.114-1.793-3.419-3.055-7.153-3.645-10.798-.37-2.293-.477-3.907-.417-6.444.066-2.83.072-2.657-.066-2.889-.16-.286-.47-.447-.75-.393-.393.072-.476.22-1.024 1.852-2.895 8.63-7.588 16.957-14.235 25.253-1.578 1.972-2.27 2.776-4.116 4.795-17.873 19.523-30.434 37.641-37.587 54.223-4.092 9.47-6.41 18.19-7.136 26.807-.38 4.497-.22 7.118.626 10.114 1.983 7.01 7.468 14.097 16.557 21.37 2.424 1.941 5.349 4.05 8.523 6.146 2.853 1.888 3.89 2.513 6.45 3.925 29.071 16.015 52.037 30.315 69.732 43.419 7.993 5.914 15.164 11.846 20.68 17.105.589.566 1.137 1.072 1.22 1.126.09.06.262.1.435.1h.292l3.073-3.084c2.895-2.9 4.497-4.443 6.891-6.63 11.56-10.547 24.962-20.148 39.994-28.635 2.18-1.233 3.199-1.775 6.046-3.234 22.31-11.424 38.91-23.169 49.237-34.843 7.546-8.528 11.864-17.117 12.936-25.717.191-1.53.239-2.406.239-4.318 0-4.425-.566-7.451-2.502-13.49-3.097-9.62-8.963-19.5-17.617-29.66-2.472-2.901-4.837-5.45-7.958-8.601-5.342-5.385-10.405-9.959-17.123-15.462-1.197-.983-3.27-3.115-5.152-5.307-8.814-10.262-14.759-23.192-17.51-38.112-.292-1.59-.316-1.661-.524-1.858-.22-.208-.435-.244-.727-.13-.202.082-.351.25-.977 1.09-5.676 7.652-9.886 15.282-12.09 21.881-1.09 3.264-1.727 6.32-1.948 9.321-.09 1.257-.041 4.05.095 5.134.364 2.96 1.233 5.837 2.496 8.25.614 1.16 1.09 1.929 2.329 3.722 5.76 8.332 9.446 14.812 11.131 19.559.382 1.054.71 2.192.68 2.323-.03.13-2.705-2.138-4.867-4.122-2.042-1.876-5.366-5.313-7.218-7.457-11.108-12.906-16.552-27.409-16.296-43.418.072-4.313.435-7.922 1.24-12.33.899-4.949 2.525-10.797 4.377-15.753.566-1.524.59-1.715.238-2.037-.208-.19-.25-.208-.512-.184-.322.03-1.078.494-4.098 2.501-5.289 3.52-9.452 6.707-13.502 10.352-1.304 1.179-4.288 4.169-5.342 5.36-4.515 5.104-7.386 9.792-9.041 14.77-2.949 8.857-1.531 17.595 4.306 26.523.357.547.643 1.012.625 1.024-.012.012-.357-.256-.762-.602-6.325-5.366-10.066-11.12-11.192-17.206-.434-2.353-.476-4.956-.119-7.445.977-6.826 4.872-14.122 11.698-21.918 3.097-3.538 8.594-8.868 11.673-11.316 1.03-.816 2.93-2.686 3.64-3.574 2.483-3.115 3.83-6.313 4.377-10.423.185-1.364.203-4.342.036-5.866-.328-2.954-.977-5.772-2.085-9.024-3.359-9.874-10.875-21.953-22.191-35.676a212.12 212.12 0 0 0-1.162-1.411l-.185-.226h-.518c-.494 0-.524.006-.62.154h.001z"/><path d="M178.546 171.212c-5.056.298-9.78 1.4-14.401 3.365-5.521 2.347-10.655 5.998-14.681 10.447-1.93 2.126-3.312 4.008-4.878 6.64-1.245 2.086-1.733 3.015-2.33 4.444-.452 1.09-.481 1.18-.398 1.471.125.477.631.715 1.18.56.118-.03.327-.083.464-.113s1.072-.5 2.084-1.048c3.872-2.079 5.635-2.734 9.256-3.46 2.317-.46 4.46-.686 6.939-.733 2.424-.042 4.633.107 6.82.464 2.25.37 5.365 1.215 7.343 1.995 6.92 2.734 12.495 7.005 16.914 12.955 1.198 1.614 2.109 3.109 2.68 4.401.394.893.965 2.627 1.323 4.02.56 2.15.685 3.103.727 5.36.047 2.585-.114 3.985-.75 6.493-.626 2.453-1.281 3.978-2.556 5.955-.935 1.448-1.894 2.478-3.091 3.336-.72.512-.911.75-.911 1.125 0 .31.137.536.458.757.477.327.47.327 3.949-.536 5.009-1.239 6.575-1.721 8.44-2.597 2.578-1.215 6.932-4.086 9.368-6.176 4.425-3.8 7.124-7.249 8.743-11.185 1.436-3.479 2.002-5.95 1.9-8.309-.107-2.478-1.161-7.82-2.138-10.81-2.394-7.332-6.903-13.99-12.853-18.976-1.858-1.554-3.448-2.68-5.604-3.972-5.319-3.175-11.507-5.182-17.802-5.76-1.906-.172-4.402-.22-6.195-.113zM536.55 33.238c-7.555.25-13.034.773-19.838 1.898-6.826 1.126-14.124 2.91-20.462 4.996-7.423 2.445-12.937 4.712-19.808 8.134-4.059 2.018-6.969 3.638-11.056 6.156a138.604 138.604 0 0 0-19.353 14.352c-7.014 6.23-13.323 12.89-19.922 21.036-4.388 5.417-6.469 8.497-8.532 12.618-1.12 2.245-1.46 3.064-2.2 5.32-.88 2.689-1.193 4.093-1.352 6.076-.29 3.729 1.051 8.68 3.25 11.988 1.268 1.91 3.184 3.797 5.497 5.417 2.552 1.784 4.866 2.728 7.713 3.137 2.905.42 5.468.42 8.316 0 4.229-.614 6.923-2.103 10.475-5.78 1.45-1.501 2.422-2.746 5.326-6.833 1.995-2.807 3.007-4.132 4.553-5.968 1.74-2.063 2.813-3.217 4.49-4.797 3.33-3.143 6.002-5.23 12.704-9.924 6.587-4.61 11.771-7.52 18.893-10.606 7.082-3.075 14.517-5.553 20.814-6.952 6.315-1.398 12.266-2.148 20.32-2.574 1.797-.091 7.248-.091 8.867 0 3.826.221 6.292.471 10.317 1.04 5.326.75 7.997 1.222 12.362 2.188 8.43 1.864 13.153 3.433 19.007 6.31 6.292 3.091 12.584 6.632 16.813 9.469 2.29 1.534 5.696 4.03 7.975 5.843 6.406 5.104 12.999 11.765 18.024 18.217 5.848 7.502 10.407 15.062 14.22 23.56 2.286 5.104 4.264 10.594 5.696 15.83 1.41 5.149 2.37 9.832 3.07 14.92 1.113 8.19 1.312 16.38.59 24.923-.34 4.076-1.153 9.51-2.017 13.528-1.797 8.321-4.349 16.017-7.816 23.56-3.825 8.333-8.628 16.114-14.46 23.418-1.386 1.739-2.41 2.904-5.087 5.769a436.095 436.095 0 0 0-5.462 5.996c-1.347 1.512-2.922 2.797-6.264 5.099-1.568 1.08-5.752 3.837-6.178 4.075-.12.068-.04-.005.568-.534 1.939-1.694 5.877-5.559 7.736-7.588 3.086-3.37 6.576-7.815 9.026-11.499 4.087-6.138 7.162-11.993 9.896-18.825 1.813-4.536 3.558-10.265 4.598-15.09 1.649-7.657 2.348-14.523 2.262-22.196-.08-7.44-.903-14.25-2.597-21.57-1.074-4.645-2.956-10.499-4.803-14.921-2.615-6.28-5.417-11.538-9.214-17.28-1.716-2.602-4.217-5.927-6.565-8.735-3.427-4.093-7.951-8.611-12.044-12.016-6.042-5.025-12.357-9.185-18.984-12.499-7.725-3.86-15.591-6.645-23.588-8.35-7.475-1.591-14.5-2.296-21.855-2.205-2.933.04-4.32.102-7.418.358-5.445.443-11.816 1.444-16.238 2.552-4.087 1.023-8.77 2.558-11.527 3.774-1.41.625-3.235 1.614-4.349 2.353-1.063.71-3.177 2.473-4.001 3.343-1.745 1.83-3.16 4.223-4.206 7.121-.847 2.33-1.143 4.27-1.006 6.588.187 3.132.699 5.65 1.625 7.997.881 2.234 2.83 5.06 4.77 6.918 3.193 3.069 5.973 4.365 10.833 5.058.562.08 1.097.097 2.529.097 1.586.006 1.915-.011 2.586-.12a21.296 21.296 0 0 0 2.842-.642l3.16-.96c3.558-1.08 8.73-2.473 10.481-2.814 1.677-.335 5.139-.778 7.39-.955 1.404-.108 5.706-.09 7.417.034 4.348.307 7.327.78 11.425 1.802 5.331 1.336 10.56 2.996 13.84 4.4 4.024 1.722 7.838 3.762 11.112 5.945 2.655 1.768 6.582 4.82 8.98 6.98 1.07.96 4.07 3.962 5.1 5.093 2.608 2.87 5.28 6.337 7.337 9.509 3.536 5.445 6.304 11.152 8.27 17.035 3.303 9.872 4.508 19.672 3.706 30.096-.608 7.866-2.603 15.989-5.7 23.247-2.468 5.78-5.423 10.919-9.067 15.773-2.574 3.422-5.092 6.252-8.304 9.31-1.904 1.82-2.057 1.961-3.53 3.189-2.893 2.421-5.467 4.274-8.895 6.411-4.166 2.598-6.82 3.956-11.027 5.644-5.667 2.28-10.157 3.513-16.085 4.428-5.07.779-8.89 1.086-13.471 1.08-4.519-.006-7.9-.261-14.892-1.137-5.48-.682-14.909-2.387-20.49-3.694-10.453-2.456-16.666-4.485-25.521-8.338-3.183-1.382-8.549-3.911-17.689-8.333-1.796-.87-2.182-1.04-2.393-1.04-.824 0-1.221.92-.67 1.563.841.977 4.86 5.542 5.456 6.207 2.706 2.995 5.44 5.73 7.253 7.252 2.956 2.479 7.287 5.247 14.21 9.072 10.117 5.599 17.046 8.304 24.98 9.76 7.18 1.318 11.556 1.972 18.28 2.733 3.03.341 4.803.489 7.98.665 1.683.091 7.713.091 9.635 0 11.225-.545 19.29-1.506 27.015-3.228 6.946-1.546 13.846-3.632 20.74-6.281 7.146-2.745 16.774-7.69 25.084-12.885 4.223-2.643 10.35-7.145 14.898-10.959 5.433-4.559 9.685-8.753 14.465-14.295 7.332-8.498 12.567-16.313 18.24-27.22 1.807-3.473 4.877-9.686 5.922-11.993.881-1.933 2.058-4.81 2.57-6.264 1.358-3.854 3.967-13.346 5.2-18.916.66-2.99 1.347-7.06 1.876-11.084 1.552-11.834 1.552-24.486 0-36.32-.875-6.696-2.012-12.436-3.751-18.922a141.778 141.778 0 0 0-7.486-21.008c-1.285-2.859-3.484-7.338-4.678-9.52-5.218-9.543-11.146-18.092-17.882-25.788-4.547-5.2-8.673-9.327-13.874-13.875-8.674-7.593-18.848-14.448-29.085-19.586-7.087-3.564-12.822-5.934-20.32-8.407-5.791-1.91-12.743-3.66-18.785-4.729-8.804-1.557-16.91-2.262-25.52-2.234a191.41 191.41 0 0 0-3.269.029zm99.098 245.295a.543.543 0 0 1-.114.125c-.108.102-.113.097-.113-.017 0-.085.034-.125.113-.125.063 0 .114.011.114.017zm-.852.801c0 .012-.04.052-.086.091-.068.057-.085.057-.085-.022 0-.052.04-.091.085-.091.046 0 .086.011.086.022zm-4.718 3.973a.54.54 0 0 1-.114.125c-.108.103-.113.097-.113-.017 0-.085.034-.125.113-.125.063 0 .114.012.114.017zm-4.036 3.19c0 .01-.04.033-.085.056-.045.017-.085.006-.085-.023 0-.034.04-.057.085-.057.046 0 .085.012.085.023z"/><path d="m418.466 157.426-.768.085c-3.592.38-7.11 1.807-10.055 4.081-1.114.853-2.597 2.336-3.45 3.45-2.285 2.967-3.615 6.23-4.098 10.083-.113.927-.096 3.593.029 4.548.38 2.819 1.233 5.365 2.546 7.593a20.211 20.211 0 0 0 3.825 4.735 19.726 19.726 0 0 0 13.846 5.161c3.888-.097 7.344-1.182 10.544-3.302a19.223 19.223 0 0 0 3.706-3.172c.807-.892 1.188-1.376 1.87-2.404 1.745-2.632 2.774-5.417 3.189-8.64.142-1.12.142-3.598 0-4.718-.546-4.24-2.251-7.963-5.048-11.032-3.205-3.524-7.394-5.695-12.271-6.366-.62-.085-3.388-.16-3.865-.102zm118.737 34.126c-2.876.187-5.207.506-7.782 1.057a48.866 48.866 0 0 0-7.36 2.166 50.996 50.996 0 0 0-15.58 9.344c-.955.836-3.132 2.978-4.081 4.019-1.927 2.108-4.092 4.973-5.565 7.372-3.421 5.553-5.638 11.31-6.832 17.734-.568 3.063-.801 5.66-.801 9.094.006 4.16.335 7.196 1.228 11.197 1.489 6.707 4.393 13.124 8.48 18.74a50.716 50.716 0 0 0 23.071 17.631 50.642 50.642 0 0 0 22.469 3.127 49.807 49.807 0 0 0 12.732-2.78c2.887-1.046 5.081-2.04 7.616-3.456 4.843-2.7 9.327-6.246 12.908-10.214 2.211-2.455 4.792-5.928 5.679-7.65.221-.432.58-1.421.676-1.848.051-.233-.068-.54-.284-.727-.165-.148-.245-.176-.495-.176a.936.936 0 0 0-.494.12c-.108.062-1.058.982-2.103 2.034-1.961 1.972-2.473 2.455-3.98 3.763-1.488 1.29-2.415 2.012-4.461 3.473-4.723 3.37-9.85 5.962-15.574 7.86-5.115 1.7-8.645 2.302-13.039 2.229-2.307-.04-3.711-.188-5.832-.614-5.7-1.143-11.447-3.956-16.88-8.259-7.407-5.866-11.54-12.482-12.5-20.013-.17-1.33-.221-2.41-.187-4.036.05-2.512.312-4.479.955-7.133 1.71-7.116 5.217-12.453 10.492-15.96 3.445-2.297 7.997-3.911 12.636-4.485 1.261-.154 3.717-.142 4.865.028 3.388.495 6.127 1.853 8.463 4.19 1.575 1.568 2.58 3 3.9 5.558.716 1.387.835 1.671 1.33 3.251.989 3.138 1.358 4.121 2.193 5.77 2.092 4.155 3.848 6.405 6.418 8.236 1.847 1.318 4.149 2.358 6.11 2.762 1.262.256 2.057.33 3.58.335 2.405 0 4.059-.244 6.043-.903 2.393-.796 5.4-2.427 7.088-3.837 1.983-1.665 3.74-3.95 4.802-6.264 1.154-2.495 1.905-5.229 2.11-7.639.17-2.006-.08-5.314-.609-8.207-.472-2.575-1.523-5.707-2.774-8.27-1.74-3.564-3.683-6.617-6.258-9.84-1.927-2.398-4.581-5.098-6.99-7.093-5.793-4.803-12.773-8.367-19.889-10.151-3.086-.78-5.462-1.177-8.674-1.455-1.227-.103-5.615-.154-6.82-.08zm-28.715 51.48c-.08.295-.103.3-.103.028 0-.17.023-.24.08-.24.068 0 .068.04.023.211zM444.44 224.7c-2.893.153-5.587 1.136-7.957 2.904-.694.523-2.132 1.961-2.655 2.654a14.713 14.713 0 0 0-2.194 4.19c-.511 1.557-.722 2.847-.722 4.478 0 1.62.21 2.933.722 4.48a14.043 14.043 0 0 0 5.56 7.326c1.949 1.302 4.063 2.086 6.325 2.347.921.108 2.342.108 3.263 0a14.41 14.41 0 0 0 8.765-4.41c2.12-2.257 3.472-5.24 3.79-8.373.086-.841.035-2.683-.09-3.467-.444-2.768-1.632-5.332-3.394-7.315-1.727-1.933-3.808-3.308-6.223-4.104-1.757-.58-3.41-.807-5.19-.71zM878.926 33.25c-4.472 1.903-8.695 3.985-12.444 6.132-17.396 9.965-27.877 22.866-31.412 38.66-.688 3.079-1.11 6.276-1.287 9.758-.09 1.702-.036 5.741.089 7.503 1.103 15.041 6.032 27.728 14.953 38.464 2.473 2.978 5.925 6.43 9.074 9.08 12.284 10.327 29.277 18.216 50.861 23.601 3.565.89 4.805 1.169 5.066 1.14.462-.06.747-.558.551-.962-.053-.106-.605-.658-1.263-1.251-11.092-10.018-20.036-20.196-26.905-30.63-5.753-8.73-10.065-17.657-12.888-26.69a89.88 89.88 0 0 1-4.07-23.25c-.076-1.792-.04-7.367.06-8.868.398-5.884 1.038-10.421 2.242-15.866.546-2.48 1.578-6.364 2.272-8.577 1.145-3.618 2.153-6.453 3.47-9.721.978-2.432 2.443-5.783 3.226-7.379.338-.688.386-.901.28-1.156a.762.762 0 0 0-.232-.303c-.32-.207-.48-.178-1.643.314zm94.8-.32a.677.677 0 0 0-.398.634c.006.13.125.457.29.8 1.822 3.802 3.975 9.04 5.35 13.014 1.235 3.553 2.112 6.477 2.925 9.697 1.649 6.525 2.503 11.988 2.972 18.921.1 1.5.136 7.076.059 8.868-.647 14.71-4.692 28.577-12.36 42.379-7.231 13.013-17.765 25.789-31.502 38.191-.658.593-1.21 1.145-1.263 1.252-.196.403.089.901.551.96.261.03 1.5-.249 5.066-1.138 21.584-5.386 38.577-13.274 50.86-23.6 1.72-1.448 2.847-2.486 4.751-4.39 1.928-1.934 2.972-3.06 4.324-4.692 8.921-10.735 13.85-23.422 14.953-38.464.125-1.762.178-5.8.089-7.503-.397-7.788-2.076-14.55-5.22-20.997-2.176-4.46-4.851-8.428-8.286-12.29-7.396-8.315-17.882-15.385-31.358-21.139-.688-.296-1.335-.551-1.436-.563a.826.826 0 0 0-.367.06z"/><path d="M817.151 73.475c-.237.095-.385.35-1.097 1.84-8.102 16.963-12.349 31.002-13.049 43.15-.077 1.316-.077 4.893 0 6.138.392 6.4 1.916 11.786 4.728 16.756 4.733 8.34 9.917 14.953 15.528 19.787 3.89 3.357 7.936 5.83 12.337 7.556 1.809.712 6.37 2.183 9.905 3.203 7.859 2.266 14.514 3.606 21.709 4.36 8.867.931 16.162 2.621 23.102 5.356 6.82 2.68 13.043 6.696 19.745 12.734 1.495 1.347 3.618 3.423 4.395 4.3 1.222 1.388 2.456 3.102 3.328 4.627 1.945 3.41 3.096 7.278 3.505 11.773.113 1.246.095 4.662-.03 6.05a57.655 57.655 0 0 1-.551 4.211c-1.495 8.221-6.424 14.42-14.852 18.678-2.45 1.24-4.609 2.112-7.681 3.09-.967.303-3.09.89-3.244.89-.173 0-6.614-3.826-7.729-4.59-.386-.262-.415-.274-.824-.274-.973 0-4.603.327-6.353.57-1.999.279-3.327.587-4.11.943-.522.243-.753.439-.848.724-.125.385.03.616.943 1.44 4.496 4.076 9.822 9.455 14.057 14.206 11.24 12.604 21.157 26.958 29.799 43.15 1.82 3.41 4.146 8.031 5.652 11.24.35.748.718 1.442.807 1.536.172.178.48.261 1.05.267.415.006.557-.184 1.287-1.744 1.477-3.15 3.82-7.811 5.652-11.24 8.642-16.192 18.56-30.545 29.799-43.15 4.235-4.75 9.561-10.13 14.057-14.205.914-.824 1.068-1.056.943-1.441-.095-.285-.326-.48-.848-.724-.783-.356-2.111-.664-4.11-.943-1.75-.243-5.38-.57-6.353-.57-.409 0-.439.012-.824.274-1.115.765-7.557 4.59-7.729 4.59-.154 0-2.277-.587-3.244-.89-3.072-.978-5.231-1.85-7.681-3.09-8.428-4.258-13.357-10.456-14.852-18.677-.445-2.45-.647-4.733-.652-7.355-.006-2.094.047-2.977.266-4.656.742-5.581 2.966-10.492 6.638-14.65.777-.878 2.9-2.954 4.395-4.3 6.702-6.039 12.924-10.054 19.745-12.735 6.94-2.734 14.235-4.425 23.102-5.356 8.132-.854 15.825-2.497 25.06-5.362 5.16-1.595 7.723-2.562 10.232-3.855 9.086-4.686 17.105-13.203 24.187-25.689 2.812-4.97 4.336-10.356 4.728-16.755.118-2.005.065-5.665-.119-7.89-.937-11.144-4.905-24.228-11.916-39.246-1.524-3.269-1.768-3.75-1.981-3.874-.368-.225-.896-.089-1.038.273-.036.095-.22.997-.397 2.011a238.282 238.282 0 0 1-3.328 15.51c-4.448 17.794-10.386 31.407-17.782 40.802-2.74 3.487-6.839 7.68-11.139 11.405-8.256 7.16-18.245 13.785-30.801 20.452-1.738.919-5.718 2.93-9.49 4.786-16.697 8.22-27.676 17.07-33.334 26.857-.99 1.714-1.507 2.906-2.402 5.587-.16.457-.315.884-.35.95-.054.094-.06.088-.065-.06 0-.368-1.003-3.203-1.513-4.282-.415-.89-1.038-2.023-1.738-3.174-2.888-4.757-7.372-9.537-13.06-13.944-5.795-4.49-12.432-8.47-21.383-12.818-21.554-10.48-37.462-21.631-47.919-33.589-7.052-8.06-12.764-19.484-17.325-34.603-2.135-7.093-4.099-15.433-5.635-23.938-.178-1.015-.367-1.928-.415-2.035-.148-.332-.563-.504-.89-.368zm110.168 168.58c.107.172.267.445.362.61.09.16.397.617.682 1.009.29.391.777 1.073 1.086 1.512 3.15 4.467 6.892 7.966 11.162 10.44 1.471.848 3.654 1.856 5.356 2.461.25.089.451.172.44.184-.042.041-1.163.255-1.91.362-.962.13-3.648.148-4.538.03-3.138-.44-5.813-1.478-8.624-3.346-1.014-.676-1.566-1.11-2.408-1.886-1.364-1.258-1.471-1.347-1.643-1.382-.332-.065-.493.03-1.4.83-3.766 3.346-7.402 5.125-11.667 5.724-.89.119-3.577.1-4.537-.03-.748-.106-1.869-.32-1.91-.362-.012-.011.19-.094.439-.183 1.702-.605 3.885-1.614 5.356-2.462 4.56-2.64 8.475-6.418 11.833-11.418 1.079-1.595 1.643-2.402 1.684-2.402.024 0 .13.143.237.309zm.012 21.856c.285.44 1.252 1.43 1.88 1.934 1.359 1.097 3.897 2.586 7.082 4.152 1.009.498 1.827.92 1.827.943 0 .024-.356.492-.783 1.038-2.301 2.918-4.727 6.56-6.423 9.656a99.898 99.898 0 0 0-1.453 2.823c-.926 1.863-.938 1.887-1.62 3.945-.373 1.138-.7 2.028-.717 1.98-.018-.047-.315-.877-.659-1.838-.806-2.236-1.815-4.436-3.209-6.987-1.75-3.185-4.258-6.94-6.619-9.9-.32-.403-.581-.747-.581-.77 0-.03.824-.451 1.827-.95 2.591-1.28 4.235-2.194 5.794-3.238 1.643-1.097 2.302-1.678 2.978-2.633.213-.303.397-.552.403-.552.006 0 .125.178.273.397z"/><path d="M787.3 132.118c-.285.137-.345.261-.677 1.31-2.307 7.326-3.69 14.491-4.152 21.514-.095 1.465-.095 6.27 0 7.592.356 4.84 1.026 8.636 2.23 12.586 1.062 3.476 2.711 7.266 4.846 11.11 3.583 6.458 8.043 11.969 13.103 16.192 7.14 5.955 15.943 9.733 24.792 10.64 3.168.327 6.981.273 10.261-.148 4.01-.51 8.197-1.572 12.337-3.137 1.359-.51 13.198-5.38 26.068-10.718 4.728-1.964 5.57-2.302 6.347-2.539 4.59-1.4 8.76-.872 12.462 1.584 4.377 2.9 6.744 6.98 7.206 12.426.095 1.12.042 3.82-.089 4.573-1.044 5.996-8.387 9.626-21.922 10.836-.534.048-.848.178-1.12.463-.185.196-.203.25-.256.795-.077.747-.018 2.746.1 3.695.582 4.626 2.925 7.592 6.952 8.814.79.237 1.964.462 2.889.551.818.084 3.28.084 4.217.006 4.603-.391 8.18-1.708 11.24-4.128.712-.563 2.248-2.13 2.841-2.888 3.832-4.935 5.89-11.436 5.896-18.607.006-1.53-.048-2.177-.261-3.47-.837-5-3.595-10.083-8.245-15.184-.96-1.056-3.274-3.339-4.086-4.033-5.25-4.49-12.254-7.491-20.849-8.92-4.43-.736-8.986-1.068-14.68-1.074-7.064 0-14.626-.825-21.056-2.29-8.25-1.88-15.908-5.012-21.697-8.873-4.46-2.977-9.063-7.04-13.956-12.325-5.765-6.234-12.046-14.43-18.41-24.022-.594-.895-1.128-1.673-1.187-1.72a1.557 1.557 0 0 1-.25-.314c-.13-.208-.432-.398-.622-.398a.99.99 0 0 0-.273.101zm279.013.042a.974.974 0 0 0-.332.314c-.077.125-.19.267-.25.314-.058.048-.592.825-1.185 1.72-12.426 18.732-23.88 31.294-34.224 37.534-4.164 2.509-9.59 4.834-15.065 6.447-7.687 2.266-16.899 3.523-25.831 3.53-1.94 0-5.06.082-6.614.177-12.538.753-22.123 4.004-28.915 9.816-.812.694-3.125 2.978-4.086 4.034-4.65 5.1-7.408 10.184-8.245 15.184-.213 1.293-.267 1.94-.26 3.47 0 3.736.563 7.313 1.66 10.617.943 2.835 2.467 5.711 4.235 7.989.593.76 2.13 2.325 2.841 2.889 3.06 2.42 6.637 3.736 11.24 4.128.937.077 3.399.077 4.217-.006 5.813-.576 9.128-3.725 9.84-9.366.119-.949.178-2.948.1-3.695-.053-.546-.07-.599-.254-.795-.273-.284-.587-.415-1.121-.462-6.074-.54-11.05-1.614-14.615-3.144-4.288-1.839-6.738-4.419-7.307-7.693-.13-.753-.184-3.452-.09-4.573.463-5.445 2.83-9.525 7.207-12.426a15.795 15.795 0 0 1 2.966-1.524c3.244-1.198 6.904-1.08 10.653.35.373.142 2.71 1.097 5.19 2.129 12.87 5.338 24.71 10.208 26.067 10.718 4.14 1.566 8.328 2.627 12.338 3.137 3.28.422 7.093.475 10.26.149 5.327-.546 10.452-2.064 15.54-4.597 9.182-4.573 16.715-12.064 22.356-22.236 2.135-3.844 3.784-7.634 4.846-11.11 1.204-3.95 1.874-7.746 2.23-12.586.095-1.323.095-6.127 0-7.592-.457-6.916-1.732-13.618-3.998-20.997-.225-.753-.45-1.435-.498-1.518a.71.71 0 0 0-.896-.326zm264.554-109.636c-1.017.044-2.07.155-2.485.267-.236.062-1.11.235-1.94.384-.979.173-1.456.279-1.363.31.75.204 3.148 1.158 4.176 1.667.682.334 2.41 1.14 3.842 1.797 4.524 2.07 6.612 3.141 11.402 5.874 16.124 9.19 29.397 19.185 38.822 29.23 8.954 9.548 14.668 18.986 17.537 28.981 1.06 3.7 1.84 8.62 2.236 14.116.106 1.475.143 6.568.062 8.149-.167 3.234-.495 5.967-1.065 8.892-2.541 12.982-9.32 24.049-20.362 33.257-5.633 4.69-11.241 7.684-17.865 9.524-4.66 1.29-10.237 2.039-15.244 2.045-2.287 0-3.13-.062-5.143-.372-6.848-1.06-14.284-4.158-21.447-8.954-3.96-2.652-7.033-5.236-9.505-8-5.014-5.601-7.703-11.736-8.217-18.757-.093-1.276-.044-4.226.093-5.49.675-6.203 2.578-11.117 5.806-14.965 2.138-2.547 4.69-4.523 7.957-6.166 2.156-1.084 2.794-1.35 4.628-1.914 2.467-.756 3.607-1.029 6.06-1.456 1.779-.31 2.306-.378 3.49-.44a59.103 59.103 0 0 0 1.635-.1l.508-.043-.173-.223c-.527-.663-2.355-2.522-2.87-2.912-5.421-4.17-9.449-6.73-14.735-9.357-9.183-4.567-18.596-7.139-29-7.913-1.803-.137-6.853-.186-8.818-.093-11.513.557-22.704 3.507-33.66 8.86-8.427 4.122-16.365 9.475-24.012 16.205-2.553 2.243-6.252 5.825-8.557 8.279-1.804 1.927-5.063 5.614-5.701 6.456l-.384.515.043-.837c.124-2.485.613-6.742 1.128-9.852 2.8-16.991 10.075-33.363 21.706-48.86 1.333-1.785 2.312-3.03 2.64-3.378.223-.235 1.723-2.131 1.847-2.33.043-.074-2.69.874-3.21 1.116-1.568.718-4.747 3.104-7.752 5.818-1.041.942-3.024 2.832-3.774 3.6-5.28 5.398-9.61 10.51-14.066 16.583-14.816 20.22-24.793 43.252-28.721 66.335-3.892 22.846-2.374 46.84 4.436 69.929 3.241 11.017 7.938 22.214 12.53 29.867.98 1.63 1.71 2.683 2.336 3.346.304.329.917 1.017 1.363 1.537.44.515.806.93.812.923.006-.006-.124-.725-.285-1.592-.198-1.047-.322-1.915-.366-2.572a99.29 99.29 0 0 0-.198-2.168c-.818-7.907-.861-8.564-.991-15.058-.13-6.922.093-14.389.626-20.976 1.586-19.451 5.93-35.122 13.031-47.001 3.476-5.813 7.442-10.497 12.313-14.538 11.216-9.295 22.816-14.506 34.825-15.634 2.416-.229 5.744-.297 8.093-.16 5.254.303 10.54 1.325 15.919 3.079 6.568 2.144 11.934 5.013 16.532 8.849 3.979 3.321 7.653 7.547 11.092 12.765 1.692 2.571 2.857 4.92 3.898 7.87 2.237 6.332 3.148 14.698 2.491 22.896-.502 6.308-1.723 11.179-3.929 15.708-1.561 3.198-3.309 5.646-5.818 8.155-1.642 1.642-2.87 2.64-4.728 3.86-4.01 2.628-8.762 4.431-13.434 5.1-1.122.155-4.648.162-5.763 0-3.91-.55-7.288-1.865-10.665-4.145-2.138-1.438-3.52-2.677-6.556-5.874-1.92-2.027-2.69-3.024-4.387-5.701-1.177-1.847-1.586-2.479-1.605-2.46-.074.074-.98 5.657-1.227 7.603-.644 4.976-.762 11.402-.316 16.762 1.37 16.247 7.783 31.466 18.559 44.027 2.683 3.13 6.048 6.488 9.276 9.264 12.864 11.08 29.862 19.123 49.096 23.237 2.987.645 4.251.892 4.772.936.241.025.452.062.464.087.019.024-.57.328-1.295.669-14.339 6.791-29.713 10.045-46.48 9.846-5.169-.062-9.314-.34-14.47-.979-1.933-.235-4.858-.663-5.044-.737-.08-.031-.743-.143-1.468-.248a42.297 42.297 0 0 1-1.45-.223c-.118-.031-.118-.025-.013.062.068.05.601.52 1.196 1.04 1.351 1.184 1.834 1.507 3.464 2.312 6.841 3.396 19.24 6.556 31.913 8.143 24.136 3.024 48.39.774 70.053-6.476 18.286-6.128 35.785-16.167 50.967-29.236 9.462-8.148 18.1-17.536 24.985-27.147 3.575-5 6.853-10.472 7.324-12.238.068-.254.347-1.079.62-1.828.272-.75.49-1.364.483-1.37-.006-.006-.57.465-1.252 1.041-.688.583-1.623 1.301-2.107 1.624-.477.316-1.982 1.37-3.346 2.336-4.102 2.925-5.056 3.563-7.715 5.18-10.429 6.34-20.529 11.489-29.991 15.293-19.656 7.895-36.833 10.188-51.197 6.817-2.571-.601-5.056-1.4-7.931-2.547-7.771-3.092-14.185-6.81-19.712-11.427-2.69-2.243-5.478-5.068-7.578-7.683-5.745-7.139-9.599-15.628-11.576-25.48-1.883-9.364-1.437-17.228 1.457-25.742 1.338-3.94 3.643-8.935 5.39-11.693 4.5-7.076 12.697-13.626 22.767-18.187 7.647-3.464 14.5-4.672 21.1-3.724 5.564.8 10.844 3.21 15.491 7.076 4.12 3.427 6.785 7.108 8.26 11.415 1.574 4.61 1.692 9.728.341 15.057-.527 2.089-1.252 4.047-2.603 7.027a144.157 144.157 0 0 0-1.914 4.363c-.236.576-.273.725-.192.7.055-.018.34-.08.632-.13.29-.056 1.196-.242 2.013-.415 1.432-.298 1.55-.335 3.111-.954 17.518-6.972 31.237-18.857 40.111-34.757.874-1.568 2.404-4.63 3.154-6.32 3.929-8.862 6.333-18.671 7.095-28.94.205-2.769.248-4.052.248-7.466 0-3.377-.043-4.629-.242-7.498-.57-8.012-2.088-16.44-4.461-24.725-.843-2.93-2.392-7.714-2.813-8.7-.075-.167-.118-.316-.106-.334.037-.031 2.033 1.344 3.334 2.299 8.192 6.023 15.231 13.025 21.397 21.267 6.215 8.31 11.402 17.728 15.653 28.436.409 1.016.737 1.89.737 1.94 0 .049.242.712.54 1.48l.544 1.388.323-1.63.322-1.623.006-1.245c.013-6.699-3.358-19.55-8.31-31.671-7.051-17.283-16.935-33.245-28.925-46.741-2.628-2.956-7.275-7.697-10.014-10.225-12.486-11.495-26.918-20.802-42.974-27.699-16.588-7.126-34.955-11.55-51.717-12.455-1.22-.062-5.013-.118-5.88-.087zM1728.028 19.798c-.35.162-.451.276-1.978 2.206-2.36 2.994-3.168 4.097-6.04 8.294-.599.868-2.543 3.666-4.319 6.222-5.73 8.233-7.27 10.654-9.053 14.226-1.554 3.108-2.482 5.53-3.498 9.114-.72 2.523-1.016 3.969-1.292 6.189-.147 1.21-.168 4.97-.033 5.953.242 1.688.572 2.899 1.197 4.372 1.305 3.06 4.083 6.894 10.312 14.226 3.598 4.23 6.497 7.345 9.222 9.888 1.197 1.116 4.722 4.25 5.159 4.587.275.209.605.262.901.135.525-.216 6.807-6.236 9.108-8.724 2.67-2.886 7.136-8.092 9.894-11.536 4.312-5.375 6.182-8.724 6.747-12.074.235-1.392.296-2.388.255-4.292-.074-3.639-.639-6.544-2.213-11.38-1.486-4.574-3.753-8.987-7.406-14.442-.834-1.238-4.224-6.135-7.076-10.21-.672-.963-2.051-2.947-3.06-4.406-2.334-3.37-5.812-8.166-6.027-8.307-.256-.169-.505-.182-.8-.04z"/><path d="M1881.053 80.12c-.149.007-1.648.047-3.33.088-8.738.201-12.457.39-18.02.908-4.096.383-6.827.988-9.424 2.092-5.556 2.367-8.993 6.551-10.587 12.874-.269 1.09-1.379 6.444-1.796 8.677a152.52 152.52 0 0 1-.565 2.845c-.269 1.265-.316 1.413-.484 1.554-.108.087-.713.599-1.359 1.137l-1.177.975-.572-.525c-3.1-2.811-7.506-5.966-12.12-8.663-11.913-6.962-22.958-10.998-33.895-12.383-4.755-.606-10.13-.633-14.73-.074-14.213 1.735-26.88 8.96-38.072 21.726-.511.585-.989 1.17-1.05 1.291-.201.39-.033 2.32.35 4.09.915 4.164 3.323 7.358 7.03 9.31 1.419.746 2.105.954 2.509.773.094-.047.538-.505.995-1.03 1.79-2.064 5.119-5.26 7.285-7.008 6.652-5.361 14.078-8.644 22.163-9.807 5.92-.855 11.98-.606 18.834.766 10.749 2.153 19.654 6.384 26.966 12.807 5.522 4.85 10.412 11.49 13.52 18.35 4.466 9.867 6.08 21.49 4.81 34.728-.492 5.18-1.5 11.011-2.853 16.547-2.57 10.493-7.392 19.58-14.838 27.948-1.13 1.272-3.753 3.928-5.072 5.146-6.35 5.845-13.728 10.903-22.634 15.518-3.444 1.789-6.29 3.107-11.401 5.3a356.583 356.583 0 0 0-4.675 2.038c-18.888 8.536-32.374 17.832-41.078 28.298-1.251 1.507-2.57 3.39-3.33 4.742-.605 1.083-1.594 3.114-2.744 5.65a162.824 162.824 0 0 1-1.15 2.51c-.007.013-.215-.384-.457-.875-1.077-2.186-2.933-5.442-4.097-7.184-1.796-2.677-3.148-4.345-6.437-7.937-2.388-2.603-3.955-4.09-6.76-6.424-8.018-6.659-18.417-12.867-31.345-18.713-.773-.35-2.879-1.271-4.675-2.038-5.098-2.186-7.977-3.524-11.455-5.327-12.363-6.41-22.09-13.903-29.394-22.654-3.43-4.117-6.625-9.101-8.791-13.722-2.254-4.803-3.612-8.926-4.937-14.933-4.44-20.159-3.276-36.941 3.497-50.454 2.018-4.036 4.85-8.227 7.971-11.798 1.655-1.897 4.44-4.56 6.484-6.195 6.135-4.91 13.4-8.415 21.794-10.514 13.547-3.383 25.27-2.495 35.65 2.698 3.706 1.856 6.726 3.894 10.29 6.941 1.191 1.023 4.38 4.198 5.543 5.523.922 1.049 1.164 1.244 1.54 1.244.276 0 1.164-.363 2.093-.848 4.372-2.3 6.867-6.228 7.405-11.656.094-.99.088-1.527-.04-1.763-.235-.464-3.014-3.51-4.957-5.448-10.38-10.345-21.922-16.197-34.722-17.61-2.421-.269-3.296-.31-6.524-.31-3.276.008-4.413.068-7.036.37-11.065 1.292-22.372 5.375-34.493 12.458-4.614 2.697-9.02 5.852-12.121 8.664l-.572.524-1.177-.975c-.646-.538-1.251-1.05-1.359-1.137-.168-.141-.215-.289-.484-1.554-.161-.766-.417-2.051-.565-2.845-.417-2.233-1.527-7.587-1.796-8.677-.962-3.814-2.542-6.767-4.87-9.08-2.973-2.967-7.042-4.796-12.417-5.577-1.48-.222-5.845-.605-9.14-.813-2.039-.122-5.86-.263-11.301-.404-4.157-.108-4.251-.108-4.46.047-.262.188-.43.545-.383.807.175.969 2.92 11.052 3.767 13.85 1.937 6.35 4.453 12.161 6.733 15.524 1.197 1.776 3.316 4.063 4.6 4.964 1.642 1.157 3.552 1.89 5.684 2.18 1.312.175 3.774.161 5.482-.034 5.079-.578 7.796-1.056 12.538-2.2 2.294-.551 2.355-.558 2.49-.443.08.067.483.417.894.773l.76.646-.491.558c-7.823 8.987-13.332 20.623-16.022 33.874-1.15 5.684-1.79 10.608-2.2 16.998-.121 1.823-.121 10.069 0 11.905.188 3.014.464 5.987.747 8.173.067.538.114.995.1 1.016-.013.02-.262.094-.558.161l-.538.121-.39-.296c-.215-.161-.84-.673-1.399-1.137-2.348-1.964-4.769-3.887-5.61-4.446-1.567-1.056-3.114-1.742-4.688-2.078-.955-.209-2.879-.256-3.915-.108-1.641.242-2.953.666-4.688 1.52-2.328 1.15-6.027 3.747-12.377 8.684-1.426 1.11-2.603 2.072-2.657 2.18-.127.235-.114.659.02.867.095.141 3.821 2.872 5.9 4.325 5.529 3.848 9.995 6.175 13.284 6.915 4.345.975 7.063.1 10.487-3.357a63.17 63.17 0 0 0 5.825-6.787l.686-.921h.35c.188 0 .544.02.786.04l.438.047.188.949c1.359 6.995 3.753 15.127 6.269 21.316 5.105 12.558 14.67 24.154 28.345 34.358 8.677 6.484 18.78 12.37 30.807 17.953 4.547 2.105 9.336 4.56 12.961 6.632 13.554 7.742 24.66 16.977 33.202 27.605a94.389 94.389 0 0 1 8.77 12.948c.781 1.38 2.039 3.767 2.463 4.675.316.673 4.352 8.334 4.634 8.798.27.437.881.558 1.251.249.195-.161.592-1.016 2.63-5.67 4.104-9.337 9.814-18.054 16.978-25.91 2.004-2.2 5.294-5.435 7.614-7.5 7.123-6.337 15.262-11.966 24.652-17.045 2.18-1.184 6.828-3.49 9.753-4.85 9.222-4.284 17.375-8.777 24.491-13.506 17.522-11.637 29.092-24.713 34.924-39.464 2.394-6.06 4.62-13.668 5.932-20.28.135-.686.27-1.264.296-1.298.027-.027.383-.067.787-.094l.733-.04.7.935a64.087 64.087 0 0 0 5.832 6.793c3.423 3.457 6.14 4.332 10.486 3.357 3.29-.74 7.756-3.068 13.285-6.915 2.078-1.453 5.804-4.184 5.899-4.325.134-.209.148-.632.02-.868-.195-.363-7.453-5.92-10.413-7.97-2.38-1.649-3.383-2.28-4.62-2.893-1.736-.854-3.048-1.278-4.689-1.52-1.036-.148-2.96-.101-3.915.108-1.574.336-3.12 1.022-4.688 2.078-.84.558-3.262 2.482-5.61 4.446a55.79 55.79 0 0 1-1.399 1.137l-.39.296-.538-.121c-.296-.068-.545-.142-.558-.162-.014-.02.033-.477.1-1.015.283-2.186.559-5.16.747-8.173.121-1.836.121-10.083 0-11.906-.41-6.39-1.05-11.313-2.2-16.997-2.69-13.251-8.199-24.888-16.022-33.874l-.49-.558.76-.646c.41-.357.813-.706.894-.774.135-.114.195-.107 2.489.444 4.742 1.144 7.46 1.621 12.538 2.2 1.708.195 4.17.208 5.482.033 2.132-.289 4.042-1.022 5.684-2.179 1.284-.901 3.403-3.188 4.6-4.964 2.28-3.363 4.796-9.175 6.733-15.524.848-2.799 3.592-12.882 3.767-13.85a.666.666 0 0 0-.08-.444c-.209-.404-.518-.538-1.13-.498z"/><path d="M1777.366 128.638c-6.27.591-11.886 3.107-17.355 7.768-1.096.942-3.847 3.713-4.903 4.944-.875 1.023-2.94 3.66-3.087 3.949-.202.376 0 .935.396 1.096.189.08.471.067 2.207-.094 3.322-.31 5.764-.303 8.414.027 9.485 1.197 15.733 6.551 18.901 16.21.868 2.63 1.54 5.832 1.85 8.778.148 1.406.209 4.628.108 6.054-.323 4.554-1.453 8.738-3.471 12.848a39.551 39.551 0 0 1-3.881 6.342c-1.796 2.402-2.778 3.485-7.42 8.153-4.176 4.204-5.05 5.098-7.264 7.466-5.145 5.502-9.107 10.17-12.544 14.764-1.783 2.388-1.884 2.543-1.884 2.906 0 .559.505.949 1.002.774.115-.04.868-.552 1.669-1.144 7.143-5.206 15.356-10.446 24.167-15.396 3.377-1.897 7.272-3.99 9.471-5.092 10.453-5.233 20.966-6.579 31.325-4.01 1.661.411 3.464.956 4.796 1.447 1.204.444 1.533.478 1.83.182.416-.417.342-.808-.478-2.476-1.38-2.811-3.599-5.347-6.404-7.318-2.684-1.883-6.363-3.538-10.163-4.58a12.48 12.48 0 0 1-.895-.263c-.013-.013.33-.504.774-1.09 5.098-6.773 8.69-13.21 10.627-19.029 1.265-3.8 1.79-6.834 1.79-10.325 0-2.919-.317-5.004-1.144-7.547-.76-2.34-1.742-4.25-3.599-7.015-4.352-6.484-9.551-11.18-15.867-14.32-4.002-1.992-8.247-3.263-12.942-3.888-1.157-.148-4.89-.222-6.027-.121zm-102.981.047c-.727.053-2.2.242-3.128.396-5.758.976-11.011 3.054-15.693 6.209-4.822 3.255-9.221 7.984-12.638 13.594-1.944 3.202-3.027 6.37-3.465 10.123-.107.969-.107 4.21 0 5.213.31 2.738.814 5.018 1.709 7.702 1.937 5.818 5.529 12.255 10.628 19.029.444.585.787 1.076.773 1.09-.013.013-.417.134-.894.262-3.8 1.042-7.48 2.697-10.164 4.58-2.805 1.971-5.025 4.507-6.404 7.319-.82 1.668-.894 2.058-.477 2.475.296.296.625.262 1.83-.182 1.331-.49 3.134-1.036 4.795-1.446 10.359-2.57 20.872-1.224 31.325 4.01 2.2 1.102 6.094 3.194 9.47 5.091 8.812 4.95 17.025 10.19 24.169 15.397.8.592 1.553 1.103 1.668 1.143.498.175 1.002-.215 1.002-.773 0-.364-.1-.518-1.883-2.906-3.438-4.594-7.4-9.262-12.545-14.765-2.213-2.367-3.087-3.262-7.265-7.466-2.145-2.166-4.257-4.332-4.681-4.81-4.668-5.26-7.641-10.62-9.128-16.479-.767-3-1.07-5.764-1.002-9.148.067-3.282.43-5.905 1.305-9.35a32.99 32.99 0 0 1 2.267-6.322c2.919-6.06 7.587-9.989 13.795-11.603 3.7-.955 7.628-1.17 12.485-.666 1.257.134 1.48.141 1.674.06.39-.161.592-.72.39-1.096-.14-.276-2.253-2.973-3.12-3.982-1.03-1.204-3.787-3.982-4.87-4.91-5.51-4.695-11.193-7.231-17.455-7.77-.733-.06-3.74-.073-4.473-.02z"/><g><path d="M2100.87 9.44c-.193.125-.325.385-.944 1.74-6.965 15.393-15.233 31.151-25.767 49.116-3.31 5.643-8.68 14.502-11.531 19.008-.3.472-.897 1.422-1.323 2.107-.432.691-.824 1.25-.87 1.25-.047 0-.1.08-.113.179-.04.286-1.456 2.479-1.595 2.479-.087 0-.12.053-.12.18 0 .106-.28.61-.744 1.355-.605.95-.778 1.183-.898 1.19-.14 0-.153.033-.153.332 0 .313.027.366.286.632.419.425.552.425 1.768.066.565-.166 1.09-.3 1.17-.3.073 0 .166-.026.2-.059.04-.033.617-.233 1.295-.439 1.39-.432 3.855-1.262 4.154-1.402.85-.392 1.928-.758 2.227-.758.299 0 .332-.013.332-.152 0-.12.113-.206.631-.466.392-.192.725-.312.864-.312.2 0 .233-.02.233-.16s.24-.372.379-.372c.026 0 .432.519.89 1.15 10.574 14.482 18.238 29.39 23.282 45.32.3.938.439 1.49.439 1.715 0 .246.026.333.093.333.113 0 .219.339.83 2.525.665 2.393.871 3.224.871 3.476 0 .133.027.246.06.246.06 0 .193.498.611 2.28.18.764.26 1.269.26 1.601 0 .412.02.492.12.519.192.053.69 2.552.73 3.622.027.731.04.817.147.817.1 0 .14.127.259.745.365 1.987.472 2.818.472 3.689 0 .837.006.883.133.883.152 0 .152 0 .332 1.263.312 2.286.405 3.144.445 4.034.02.526.067.95.093.95.033 0 .06.14.06.307 0 .73.558 1.183 1.156.93.386-.16.479-.392.525-1.323.074-1.375.625-5.53 1.177-8.846 3.669-21.945 12.275-42.622 25.787-61.949 1.343-1.927 3.07-4.287 3.137-4.287.027 0 .053.12.053.266v.266h.386c.299 0 .485.047.864.233.458.219.478.239.478.465v.232h.486c.425 0 .578.04 1.362.346.505.2.877.379.877.432 0 .053.08.087.22.087.292 0 2.439.744 2.439.844 0 .053.093.086.252.086.14 0 .731.146 1.31.332.578.18 1.063.333 1.076.333.014 0 .02.046.02.1 0 .072.08.099.32.099.172 0 .67.106 1.11.233 1.242.365 1.322.378 1.62.259.4-.16.592-.539.48-.944-.034-.113-.924-1.562-1.975-3.217-17.546-27.601-31.37-52.604-40.98-74.125-.525-1.176-.658-1.416-.85-1.542a.809.809 0 0 0-.938 0zm2.825 55.435c3.23 3.941 7.437 8.062 11.504 11.266.293.232.539.432.552.438.013.013-.246.525-.572 1.143-4.233 7.976-7.842 16.961-10.447 26.027-1.396 4.865-2.712 10.64-3.496 15.333-.06.385-.133.724-.16.75-.026.034-.086-.192-.126-.498-.16-1.13-.81-4.852-1.103-6.334-2.46-12.335-6.44-23.74-12.11-34.68-.492-.95-.884-1.727-.87-1.74.013-.008.531-.433 1.15-.931 4.864-3.948 9.191-8.321 12.734-12.86l.664-.858.791 1.043a78.346 78.346 0 0 0 1.489 1.901zM1957.99 91.872c-.24.2-.352.545-.272.824.033.113.757 1.177 1.615 2.38 3.07 4.3 4.845 6.872 8.081 11.743 11.12 16.716 22.418 36.076 34.315 58.786 1.748 3.33 1.78 3.403 1.78 3.709 0 .252.014.279.167.279.093 0 .166.026.166.06 0 .126.366.491.572.578.286.12.585.053.817-.18.153-.153.233-.365.439-1.203.14-.558.28-1.03.312-1.036.027-.014.054-.12.054-.24s.12-.737.259-1.375l.339-1.542c.06-.306.1-.38.206-.38.113 0 .126-.052.126-.644 0-.385.066-1.01.166-1.575.14-.791.432-2.891.432-3.097 0-.04.06-.067.133-.067.126 0 .133-.046.133-1.156v-1.156l.253-.04c.79-.12 4.705-.492 7.025-.672 6.805-.505 14.362-.578 21.134-.199 9.545.538 19.235 2.02 28.214 4.327 1.887.485 2.126.558 2.126.631 0 .033.113.06.253.06.213 0 1.967.472 3.31.89.18.054.837.253 1.455.446.625.186 1.143.372 1.15.398.013.034.093.06.173.06.12 0 2.06.618 2.466.785.073.033.624.226 1.23.425 2.2.744 5.914 2.16 5.914 2.253 0 .033.06.06.133.06.08 0 .479.14.898.312.67.266.764.326.764.465 0 .14.026.153.385.153.28.007.512.06.878.22.458.199.498.239.518.432l.02.212h.492c.452 0 .531.02 1.143.333.704.358.83.385 1.183.239.665-.28.638-1.163-.047-1.509-.332-.166-2.047-1.429-2.047-1.509 0-.026-.08-.086-.18-.126-.152-.06-2.305-1.688-3.25-2.459l-1.548-1.263a165.425 165.425 0 0 1-3.96-3.343c-.107-.1-.692-.624-1.297-1.163-3.589-3.217-7.922-7.57-11.305-11.365-9.424-10.567-17.692-23.162-24.132-36.74-1.303-2.758-2.652-5.802-2.592-5.855.02-.02.106-.04.192-.04.087 0 .153-.04.153-.093 0-.047.28-.253.618-.459.34-.2.89-.565 1.223-.804.34-.24.658-.439.711-.439.053 0 .107-.04.12-.093.013-.046.419-.412.904-.804 1.11-.897 2.306-1.94 3.815-3.336.73-.678 1.223-1.084 1.31-1.084.099 0 .139-.04.139-.14 0-.159.644-.783.817-.79.06 0 .113-.047.113-.106 0-.06.067-.2.146-.313.187-.259.2-.678.034-.937-.246-.372-.373-.385-2.626-.306-1.123.04-2.532.1-3.137.14-1.25.073-5.004.213-9.87.359-23.527.704-44.775.339-63.404-1.097-2.785-.22-7.676-.651-9.67-.864-1.682-.18-1.934-.18-2.187.04zm66.03 22.47c3.483 5.59 8.175 11.871 12.787 17.135 4.613 5.257 10.262 10.773 15.52 15.16.604.505 1.096.937 1.096.97 0 .027-.16-.013-.346-.086-.193-.08-1.25-.485-2.346-.898-1.096-.412-2-.777-2.014-.817-.013-.04-.106-.073-.212-.073-.22 0-2.413-.725-2.446-.81-.013-.028-.087-.054-.153-.054-.073 0-.844-.226-1.708-.505-10.833-3.47-22.95-5.603-34.042-5.995l-1.296-.047-.02-.199c-.066-.592-.711-4.254-.977-5.516-.99-4.7-2.432-9.451-4.074-13.426-.186-.438-.326-.804-.319-.81 0-.007.499-.074 1.103-.147 4.732-.605 9.199-1.628 13.89-3.19 1.65-.552 3.81-1.336 4.42-1.608.147-.06.313-.12.373-.12.073-.007.339.359.764 1.037zm218.92-22.57c-.253.034-1.556.16-2.892.286-19.972 1.92-43.506 2.519-69.619 1.768-3.582-.106-9.657-.319-11.165-.399-3.397-.173-4.772-.206-5.231-.12l-.452.08v1.569h.28c.398 0 .65.252.65.645v.285h.32c.259 0 .352.034.485.173.086.093.638.612 1.223 1.143.585.532 1.17 1.064 1.296 1.19.126.12.631.558 1.116.964.519.445.878.797.878.864 0 .08.053.12.146.12.073 0 .266.099.425.212.233.18.286.26.293.432 0 .213.013.22.259.22.212 0 .365.072.784.371.286.2.565.406.625.452.06.047.133.1.166.113.033.014.233.133.445.26.313.192.38.259.38.412 0 .18.012.186.331.186.246 0 .333.026.333.093 0 .292-2.586 5.862-4.287 9.245-4.852 9.63-10.142 18.024-16.503 26.186-.817 1.043-3.183 3.948-3.615 4.433-.12.133-.352.412-.519.618-.199.246-.345.365-.445.365-.12 0-.153.04-.153.167 0 .12-.286.485-1.01 1.309a150.551 150.551 0 0 1-11.518 11.61c-1.083.971-1.296 1.137-1.475 1.137-.2 0-.22.02-.22.193 0 .146-.073.246-.292.432-.16.133-.359.24-.432.24-.093 0-.14.04-.14.126s-.505.551-1.542 1.415c-2.372 1.98-2.465 2.047-2.705 2.047-.172 0-.206.027-.206.166 0 .12-.093.24-.339.432-.186.147-.378.266-.432.266-.053 0-.093.04-.093.08-.006.047-.485.452-1.076.897-.937.725-1.097.818-1.323.818-.24 0-.26.013-.26.192 0 .153-.066.24-.325.432-.18.133-.385.24-.458.24a.176.176 0 0 0-.166.133c-.02.066-.22.246-.452.392-.705.432-.798.538-.838.87-.073.765.731 1.17 1.436.712.399-.26.91-.446 1.23-.446.252 0 .298-.02.318-.146.014-.106.166-.206.685-.425.365-.16.764-.286.884-.293.133 0 .212-.033.212-.086s.113-.14.253-.193c.133-.06.997-.399 1.907-.77 13.997-5.617 28.699-8.973 44.098-10.083 6.048-.432 13.85-.485 20.171-.126 2.918.16 6.607.465 9.358.764l.711.08v2.372h.572l.12.944c.066.552.132 1.688.152 2.692l.04 1.748h.558l.153.71c.107.506.16 1.031.186 1.762l.034 1.044.206.02c.206.02.206.02.385.784.28 1.156.306 1.243.519 1.449.332.339.844.312 1.15-.053.092-.107.471-.785.844-1.51 14.827-28.67 30.731-55.222 44.376-74.078 1.103-1.522 1.15-1.608 1.15-1.98 0-.22-.04-.313-.226-.499-.22-.22-.24-.226-.744-.22-.293.008-.731.034-.99.067zm-62.003 22.126c5.184 1.96 10.328 3.323 15.346 4.08.957.147 2.692.372 2.831.372.053 0-.95 2.486-1.017 2.513-.026.013-.053.08-.053.146 0 .106-.684 2.087-.857 2.492-.073.173-.784 2.52-1.13 3.722-.83 2.911-1.741 7.152-2.167 10.102-.16 1.117.007 1.004-1.575 1.05-7.443.246-16.336 1.456-24.192 3.31-1.775.419-5.124 1.276-5.67 1.45-.105.04-.856.258-1.66.498-.805.239-2.021.611-2.712.83-.745.246-1.363.406-1.536.406-.219 0-.299.026-.319.113-.046.173-1.827.75-2.3.75-.292 0-.345.02-.345.127 0 .14.04.12-.964.479-.398.146-1.276.478-1.947.737-.704.273-1.243.446-1.276.412-.033-.033.12-.212.372-.418 2.825-2.32 6.168-5.364 9.225-8.381 7.657-7.57 14.157-15.672 19.872-24.777.213-.332.406-.612.432-.612.027 0 .765.273 1.642.599z"/><path d="M2075.422 130.932c0 .16-.06.399-.14.545-.126.239-.133.339-.1 1.063.04.784-.053 3.55-.132 4.034-.034.233-.054.253-.266.253h-.226v2.074c0 1.143-.033 2.346-.067 2.678-.153 1.35-.618 4.054-.704 4.127-.06.053-.093.22-.093.505 0 .24-.12 1.084-.266 1.875-.286 1.528-.312 1.86-.186 2.133.06.14 5.383 5.297 19.978 19.367.918.89 1.675 1.642 1.675 1.675 0 .027-.2-.007-.445-.08-.253-.073-.645-.18-.877-.246-.286-.073-.44-.153-.459-.232-.02-.087-.1-.113-.392-.113-.22 0-.725-.107-1.316-.273-.89-.259-.964-.292-.964-.432 0-.153-.02-.16-.578-.166-.452 0-.751-.053-1.316-.213l-.731-.219-.02-.24-.02-.239-.977-.033c-.804-.026-1.077-.06-1.542-.206-.312-.1-.678-.206-.81-.246-.207-.053-.253-.093-.253-.226 0-.166-.007-.166-.578-.173-.452 0-.751-.046-1.316-.212-.725-.213-.731-.213-.751-.432l-.02-.213-.745-.006c-.67 0-.844-.027-1.741-.286-.95-.266-.997-.293-1.017-.459-.02-.18-.026-.18-.598-.18-.439 0-.758-.053-1.356-.212l-.784-.213v-.438l-.778-.007c-.724 0-.864-.027-1.748-.286-.83-.246-.963-.306-.983-.425-.02-.133-.06-.146-.505-.146-.459 0-.758-.067-2.58-.605-.292-.087-.451-.166-.451-.226 0-.073-.086-.1-.352-.1-.186 0-.658-.093-1.044-.2-.797-.225-1.223-.252-1.462-.086-.093.067-.87.718-1.728 1.45-2.845 2.425-2.845 2.425-3.097 2.425-.206 0-.226.02-.226.193 0 .146-.073.246-.292.432-.16.133-.36.24-.432.24-.093 0-.14.039-.14.125 0 .074-.153.24-.372.406-.346.272-.392.292-.897.319l-.526.033v.412c0 .479-.026.499-.538.499h-.325v.292c0 .253-.027.32-.193.432-.107.08-.3.14-.432.14-.22 0-.24.013-.24.192 0 .147-.066.246-.272.412-.286.226-.618.32-1.17.326h-.345l-.02.412-.02.419-.446.02-.451.02v.319c0 .18-.04.352-.08.392-.047.033-.439.086-.864.113l-.778.046-.02.446-.02.438-.445.02-.452.02-.013.512c-.034 1.123 0 1.196.644 1.522.751.379 2.028 1.17 2.028 1.256 0 .053.066.093.152.093.167 0 2.24 1.363 2.486 1.635.08.087.173.16.2.16.026 0 .206.106.398.239.286.2.353.279.353.432 0 .18.02.193.252.193.266 0 .22-.034 1.775 1.156.279.22.545.445.584.518.047.067.113.12.153.12.04 0 .226.12.419.273.24.192.339.319.339.432 0 .132.033.159.206.159.206 0 .944.578 3.616 2.858.584.498 1.136.957 1.23 1.017.305.212.697.14 2.97-.512 5.736-1.655 8.48-2.432 8.567-2.432a.488.488 0 0 0 .213-.067c.093-.053 5.117-1.509 5.961-1.721.146-.04 2.851-.811 6.015-1.722s5.762-1.641 5.782-1.628c.034.033-.126.193-5.164 5.058l-2.007 1.94h-.738v.353c0 .452-.12.578-.551.578h-.313v.326c0 .412-.146.538-.611.538h-.32v.319c0 .419-.132.545-.55.545h-.313v.326c0 .279-.027.352-.173.465a.729.729 0 0 1-.432.14c-.253 0-.26.006-.26.252 0 .359-.265.611-.65.611h-.28v.293c0 .246-.033.319-.206.465a.677.677 0 0 1-.432.173c-.212 0-.226.013-.226.22 0 .298-.352.644-.651.644-.2 0-.213.013-.213.226 0 .306-.365.638-.698.638-.219 0-.232.013-.232.22 0 .278-.412.71-.685.71-.153 0-.18.027-.18.193 0 .24-.451.671-.697.671-.126 0-.166.034-.166.153 0 .22-.519.711-.751.711-.153 0-.18.027-.18.186 0 .226-.498.745-.717.745-.093 0-.147.04-.147.12 0 .166-.605.744-.784.744-.106 0-.146.04-.146.153 0 .2-.519.71-.718.71-.093 0-.146.04-.146.12 0 .133-.658.811-.784.811-.047 0-.08.04-.08.087 0 .053-.08.16-.173.252-.246.233-.359.479-.359.798 0 .153.133.997.3 1.88.312 1.689.73 4.221.963 5.79.106.744.133 1.269.133 2.638v1.715h.193c.179 0 .192.02.232.345.12 1.05.186 2.473.193 4.041.013 1.522.027 1.781.126 1.914.3.426.671.492 1.25.206.332-.159.551-.219.943-.246l.512-.033.02-.2c.02-.185.073-.232.485-.438.306-.146.599-.239.844-.259.32-.027.38-.053.4-.166.012-.1.185-.206.684-.419.631-.272.698-.286 1.316-.292h.644v-.26c0-.245.014-.259.353-.398.206-.093.558-.16.897-.186.538-.04.545-.04.545-.22 0-.166.053-.199.73-.452.406-.152.805-.279.898-.279.087 0 .166-.033.18-.066.026-.087 1.874-.778 5.104-1.92 1.256-.453 2.373-.858 2.479-.911.1-.054.24-.193.312-.306.067-.113.665-2.406 1.33-5.098.69-2.798 1.249-4.925 1.302-4.965.053-.04.093-.192.093-.352 0-.425.731-3.263.838-3.263.066 0 .093-.1.093-.359 0-.253.551-2.592 1.794-7.583.984-3.975 1.828-7.351 1.868-7.504.08-.266.106-.173.93 3.117.698 2.758.85 3.476.858 3.868 0 .42.013.486.12.486.179 0 .75 2.352.744 3.07 0 .472.013.518.132.518.14 0 .127-.04.499 1.456.173.704.233 1.11.233 1.509 0 .518.006.551.146.571.133.02.18.146.465 1.283.233.937.312 1.396.312 1.774.007.466.02.519.133.519.107 0 .166.173.432 1.243.233.943.306 1.375.306 1.761 0 .472.013.518.133.518.093 0 .146.067.193.246.04.14.438 1.755.897 3.59.458 1.834.877 3.429.937 3.542.153.292.366.398 1.682.864a731.08 731.08 0 0 1 5.815 2.093c.06.027.113.107.113.173 0 .106.053.126.332.126.246 0 .585.1 1.276.366.525.206.984.412 1.024.465.04.053.153.1.246.1s.485.126.87.279c.612.24.705.292.705.432s.027.153.385.16c.273 0 .519.06.878.212.452.2.498.233.518.419l.02.206.518.04c.313.02.645.086.858.18.339.145.345.152.345.431v.28l.658.04c.512.04.738.086 1.044.225.625.286 1.05.22 1.336-.226.106-.16.12-.319.1-1.25a22.878 22.878 0 0 1 .02-1.714c.04-.558.066-.645.166-.645.112 0 .12-.14.152-2.047.027-1.721.054-2.24.206-3.336.32-2.353.499-3.423.572-3.443.033-.013.066-.206.066-.432 0-.399.246-1.927.665-4.134.24-1.29.246-1.542.053-1.82-.086-.114-1.648-1.65-3.476-3.41-1.827-1.762-3.35-3.25-3.383-3.323-.033-.067-.093-.12-.14-.12-.04 0-.272-.2-.511-.452-.24-.246-.605-.598-.81-.791-.207-.193-.373-.379-.373-.419 0-.033-.04-.066-.086-.066-.127 0-.778-.685-.778-.818 0-.066-.053-.113-.12-.113-.133 0-.81-.658-.81-.784 0-.046-.054-.08-.12-.08-.166 0-.745-.604-.745-.784 0-.106-.04-.146-.146-.146-.2 0-.718-.512-.718-.711 0-.12-.04-.153-.179-.153-.233 0-.751-.492-.751-.711 0-.113-.04-.153-.146-.153-.22 0-.718-.518-.718-.738 0-.16-.027-.186-.226-.206-.193-.02-.685-.465-3.822-3.502-1.98-1.914-3.589-3.49-3.575-3.51.026-.02 7.65 2.14 8.487 2.406.166.054.857.253 1.549.446.804.219 1.242.372 1.242.432s.093.086.286.086c.16 0 .552.08.877.173 1.503.425 1.496.425 1.496.558 0 .12.046.133.452.133.545 0 3.137.691 3.137.844 0 .06.093.087.286.087.172 0 2.36.598 5.616 1.528 3.024.864 5.443 1.529 5.596 1.529.385 0 .585-.12 1.595-.99 2.565-2.214 6.42-5.31 6.939-5.583.112-.06.232-.14.259-.186.172-.266 3.682-2.639 5.03-3.397 1.363-.77 1.397-.79 1.503-1.05.12-.285.08-.531-.146-.857-.087-.133-.16-.326-.16-.432 0-.193-.007-.2-.339-.2-.518 0-.591-.066-.591-.525v-.385l-.605-.04c-.505-.04-.632-.073-.83-.22-.187-.145-.227-.219-.227-.431v-.26h-.352c-.485 0-.645-.126-.645-.498v-.292l-.412-.02-.419-.02-.02-.439-.02-.438-.591-.04c-.565-.034-.618-.054-.897-.286-.2-.16-.3-.293-.3-.399 0-.133-.033-.16-.185-.16-.1 0-.293-.073-.432-.166-.22-.152-.246-.199-.246-.465v-.299h-.346c-.478-.007-.585-.1-.585-.525v-.339h-.379c-.425 0-.538-.06-1.096-.545-.193-.173-.539-.459-.765-.651-.259-.206-.418-.386-.418-.465 0-.1-.047-.133-.166-.133-.113 0-.638-.406-1.841-1.443-.924-.79-1.768-1.482-1.868-1.535a1.176 1.176 0 0 0-.439-.093c-.14 0-1.289.306-2.565.671-2.233.645-2.34.672-2.97.672h-.652v.186c0 .186-.014.192-.884.432-.612.172-1.017.246-1.33.246-.392 0-.445.013-.445.126 0 .146-.14.2-1.356.538-.611.166-.844.2-1.482.2h-.75v.445l-.885.24c-.611.172-1.016.245-1.329.245-.399 0-.445.013-.445.133 0 .133.007.133-1.496.558-.471.14-.737.173-1.302.173h-.718l-.02.213c-.02.206-.033.212-.685.405a5.413 5.413 0 0 1-1.309.226c-.618.033-.651.04-.651.186 0 .133-.1.173-1.09.459-.598.166-1.183.306-1.296.306-.12 0-.26.04-.306.093-.046.046-.425.18-.844.299-.412.113-1.522.425-2.459.698-.944.265-1.715.465-1.715.432 0-.027 2.233-2.207 4.965-4.839 3.649-3.529 5.005-4.792 5.118-4.792.113 0 .152-.04.152-.153 0-.18.579-.777.751-.777.06 0 .113-.04.113-.087 0-.126.685-.777.818-.777.066 0 .113-.053.113-.12 0-.133.658-.81.784-.81.047 0 .08-.047.08-.1s.026-.1.053-.1.392-.346.81-.764c.42-.42.798-.765.845-.765.04 0 .086-.04.1-.086.013-.047 1.548-1.555 3.41-3.357 1.867-1.8 3.442-3.362 3.508-3.482.16-.306.147-.479-.186-2.273-.963-5.204-1.429-8.707-1.429-10.727 0-1.044-.02-1.276-.093-1.276-.053 0-.113-.053-.14-.12-.026-.06-.052-1.05-.066-2.193-.026-2.26-.04-2.32-.405-2.486-.12-.06-.16-.126-.16-.299v-.22h-1.661v.798h-.286c-.16 0-.565.02-.897.04l-.612.047v.83l-.897.047-.897.047v.764l-.864.053-.864.047v.312c0 .439-.093.472-1.509.518l-1.15.04v.412c0 .412 0 .42-.206.459a8.05 8.05 0 0 1-.897.04h-.691v.292c0 .293 0 .293-.312.4-.18.059-.579.125-.898.152-.578.04-.585.04-.585.22 0 .165-.04.192-.71.425-.4.133-.792.239-.878.239-.086 0-.193.04-.233.093-.04.053-.638.292-1.322.532-1.45.505-1.589.571-1.761.817-.074.113-.459 1.515-.97 3.576-.466 1.86-.871 3.502-.911 3.635-.047.186-.1.253-.193.253-.12 0-.133.046-.133.511 0 .393-.073.825-.306 1.762-.266 1.077-.325 1.25-.432 1.25-.113 0-.126.052-.133.511 0 .386-.08.844-.312 1.781-.286 1.137-.332 1.263-.465 1.283-.14.02-.146.053-.153.631 0 .486-.06.838-.28 1.742-.252 1.017-.298 1.13-.431 1.15-.14.02-.146.053-.146.578 0 .485-.1.957-.831 3.901-.459 1.841-.864 3.43-.897 3.542a71.65 71.65 0 0 0-.44 1.748c-.205.851-.385 1.536-.398 1.529-.007-.013-.26-.984-.552-2.16-.352-1.39-.538-2.273-.538-2.512 0-.266-.026-.366-.093-.366-.106 0-.837-2.838-.837-3.263 0-.153-.04-.312-.093-.352-.127-.1-.771-2.752-.771-3.164 0-.226-.027-.332-.087-.332-.113 0-.777-2.705-.777-3.177 0-.253-.027-.346-.093-.346s-.2-.438-.466-1.515c-.339-1.363-.372-1.575-.372-2.227v-.71h-.186c-.18 0-.186-.007-.432-1.018-.14-.551-.246-1.15-.246-1.315 0-.207-.033-.326-.093-.346-.06-.027-.359-1.13-.864-3.184-.432-1.734-.837-3.243-.904-3.363a.996.996 0 0 0-.319-.305c-.106-.054-.997-.38-1.98-.731-3.004-1.057-2.951-1.037-2.951-1.177 0-.106-.053-.126-.36-.126a2 2 0 0 1-.577-.087 10.591 10.591 0 0 0-.539-.205c-.292-.107-.319-.133-.319-.346v-.226h-.598c-.532 0-.665-.027-1.33-.28-.677-.252-.73-.285-.73-.451 0-.18-.007-.18-.545-.22-.34-.026-.691-.093-.897-.186-.34-.14-.353-.152-.353-.392v-.246l-.744-.053c-.412-.026-.804-.073-.864-.106-.087-.047-.12-.146-.12-.386v-.325l-.897-.047-.897-.046v-.831l-.612-.047a21.55 21.55 0 0 0-.897-.04h-.286v-.797h-1.661v.286z"/><path d="M2004.467 179.708c-.2.053-.625.452-.625.585 0 .04-.073.067-.166.067-.153 0-.166.026-.166.285 0 .32.1.12-2.114 4.334-14.628 27.907-28.591 51.089-42.303 70.237-.724 1.017-1.349 1.934-1.375 2.047-.113.392.16.87.558.977.133.04 1.077-.027 2.731-.193 20.664-2.067 44.696-2.698 72.112-1.887 4.453.132 8.474.279 10.002.365.678.033 2.114.1 3.197.14 2.18.073 2.32.06 2.566-.313.166-.259.152-.678-.034-.937-.08-.113-.146-.252-.146-.312a.105.105 0 0 0-.106-.107c-.173 0-.824-.611-.824-.784 0-.106-.04-.146-.14-.146-.086 0-.558-.386-1.283-1.05-1.542-1.422-2.818-2.539-3.854-3.383-.479-.386-.878-.744-.891-.791a.128.128 0 0 0-.12-.093c-.053 0-.432-.233-.844-.525a32.828 32.828 0 0 0-1.223-.804c-.265-.153-.485-.32-.485-.366 0-.053-.08-.1-.18-.113-.126-.013-.179-.053-.165-.12.013-.053.378-.89.804-1.86 6.885-15.466 15.678-29.21 26.252-41.007 3.35-3.729 7.364-7.757 10.907-10.933.604-.539 1.203-1.077 1.329-1.197.844-.764 4.167-3.549 5.363-4.486 2.918-2.286 3.41-2.658 3.516-2.658.053 0 .093-.034.093-.067 0-.086 1.675-1.336 2.047-1.522.692-.352.718-1.176.047-1.495-.32-.153-.532-.113-1.256.259-.532.272-.618.3-1.07.3h-.492l-.02.212c-.02.193-.06.232-.518.432-.366.16-.599.212-.878.22-.359 0-.385.006-.385.159 0 .14-.087.192-.765.465-.418.166-.824.306-.89.306-.073 0-.14.026-.153.06-.02.066-1.874.81-3.41 1.368-.471.173-1.043.38-1.262.466-.22.08-.831.292-1.363.472a19.06 19.06 0 0 0-1.23.432c-.458.192-2.166.724-2.325.724-.087 0-.167.027-.18.06-.007.033-.525.212-1.15.399-.618.192-1.309.405-1.528.471-1.21.38-3.011.864-3.237.864-.14 0-.253.027-.253.06 0 .08-.272.16-2.26.665-8.919 2.28-18.336 3.728-27.947 4.287-5.908.352-13.744.312-19.872-.093-2.625-.173-7.616-.625-8.454-.765l-.219-.04v-1.156c0-1.116-.007-1.163-.133-1.163-.073 0-.133-.027-.133-.066 0-.206-.292-2.307-.432-3.098-.1-.565-.166-1.19-.166-1.575 0-.591-.013-.644-.126-.644-.107 0-.146-.074-.206-.386-.047-.206-.2-.897-.34-1.535-.139-.638-.258-1.256-.258-1.376 0-.12-.027-.226-.054-.24-.033-.013-.16-.425-.279-.916-.12-.492-.259-.97-.299-1.064-.186-.365-.571-.551-.937-.452zm48.956 22.637c0 .033-.499.479-1.11.99-3.297 2.759-5.782 5.045-9.198 8.461-2.852 2.845-4.187 4.267-6.274 6.646-4.786 5.47-9.185 11.365-12.927 17.327-.3.485-.578.884-.618.884-.034 0-.572-.193-1.197-.432-5.882-2.266-11.797-3.775-17.519-4.486l-1.11-.133c-.007 0 .273-.711.618-1.582 2.047-5.118 3.742-11.485 4.613-17.313l.16-1.044.199-.026c.106-.02.77-.053 1.462-.073 5.622-.173 12.986-1.044 19.207-2.267 5.051-.99 11.166-2.579 15.22-3.948.432-.146.85-.266.93-.266.08 0 .167-.026.2-.06.1-.099 2.22-.804 2.413-.804.093 0 .199-.04.239-.093.04-.046.658-.299 1.369-.558.711-.266 1.748-.651 2.293-.87.551-.22 1.003-.4 1.017-.4.006-.006.013.02.013.047zm144.342-22.663c-.246.026-.565.359-.651.664-.04.133-.153.592-.253 1.01-.18.765-.18.765-.385.785l-.206.02-.033 1.043c-.027.731-.08 1.256-.187 1.755l-.152.718h-.559l-.04 1.74c-.02 1.011-.086 2.148-.152 2.693l-.12.95h-.572v1.196c0 .658-.02 1.197-.046 1.197-.027 0-1.097.106-2.38.232-3.27.32-5.715.505-9.47.698-2.18.12-9.963.16-12.462.073-17.965-.638-34.707-4.16-50.71-10.674a82.347 82.347 0 0 0-1.343-.545.147.147 0 0 1-.087-.126c0-.06-.073-.093-.212-.093-.12 0-.519-.133-.884-.286-.532-.226-.671-.312-.685-.432-.02-.126-.06-.146-.352-.146-.246 0-.452-.06-.804-.233a5.956 5.956 0 0 1-.552-.299c-.146-.12-.545-.146-.784-.04-.339.14-.525.46-.492.838.04.332.133.439.838.87.232.147.432.326.452.393.02.08.093.133.166.133.073 0 .279.106.458.239.26.193.326.279.326.432 0 .18.02.193.26.193.225 0 .371.086 1.176.704.511.386 1.003.791 1.103.897.1.107.212.193.246.193.026 0 .206.12.398.273.24.192.34.319.34.432 0 .132.033.16.206.16.239 0 .332.066 2.704 2.046 1.037.864 1.542 1.33 1.542 1.416 0 .086.047.126.14.126.073 0 .266.113.432.246.22.186.292.292.292.432 0 .166.027.186.206.186.167 0 .353.126.977.678 3.463 3.077 7.464 7.038 10.72 10.62 2.021 2.227 2.32 2.58 2.32 2.759 0 .126.034.166.153.166.093.007.246.133.445.379.167.2.333.405.373.445.405.432 2.352 2.811 3.622 4.426 7.29 9.292 13.651 19.72 18.908 31.025.924 1.987 2.02 4.466 2.02 4.573 0 .066-.092.092-.332.092-.319 0-.332.007-.332.187 0 .152-.066.219-.379.412-.212.126-.412.246-.452.259a.375.375 0 0 0-.1.066c-.02.027-.292.233-.617.459-.479.339-.632.412-.845.412-.252 0-.265.007-.265.213-.007.18-.06.259-.293.432-.16.12-.352.219-.425.219-.1 0-.146.04-.146.12 0 .073-.353.418-.878.87-.91.765-1.429 1.237-2.95 2.645-.858.798-.885.818-1.184.818h-.305v.28c0 .398-.253.65-.645.65h-.286v1.595h.16c.093 0 .246.034.352.074.186.073 2.173.02 5.27-.14 1.775-.093 6.002-.246 10.07-.365 28.086-.818 52.06-.173 73.207 1.987.984.1 1.569.133 1.708.093a.78.78 0 0 0 .552-.745c0-.339-.04-.398-1.409-2.3-10.082-14.003-21.348-32.034-32.287-51.707-4.174-7.503-8.973-16.449-12.256-22.836-.166-.332-.379-.671-.465-.751a.91.91 0 0 0-.718-.22zm-46.922 23.268c.758.286 1.681.631 2.06.771.532.193.678.273.678.372 0 .106.053.126.36.126.325 0 .684.107 2.086.599.113.046.213.12.213.172 0 .067.086.093.285.093.167 0 .845.18 1.642.432 2.831.904 4.413 1.356 7.676 2.187 8.341 2.127 16.43 3.356 25.19 3.828.697.034 1.555.067 1.907.067.758 0 .81.033.877.545.333 2.592 1.376 7.55 2.227 10.554.339 1.196 1.063 3.575 1.143 3.755.16.372.857 2.393.857 2.499 0 .06.027.126.053.14.027.006.28.578.552 1.262l.505 1.243-.272.04c-2.34.3-3.044.399-4.028.572-4.626.804-9.93 2.286-14.322 4-.692.273-1.263.492-1.27.486-.007 0-.346-.545-.758-1.203-7.364-11.75-17.393-23.169-28.326-32.254-.81-.671-.943-.81-.777-.81.033 0 .684.232 1.442.524zm-49.866-14.057c-.346.153-.459.34-.486.811-.013.233-.053.425-.086.425s-.06.293-.06.652c0 .618-.166 2.186-.465 4.333-.18 1.256-.18 1.263-.326 1.263-.113 0-.126.086-.16 1.143-.026.964-.08 1.396-.305 2.625a71.368 71.368 0 0 0-.272 1.516c0 .02-.06.033-.127.033-.113 0-.126.066-.153.81-.033 1.064-.545 3.576-.73 3.63-.1.026-.12.106-.12.518 0 .332-.08.837-.26 1.602-.418 1.78-.551 2.28-.611 2.28-.033 0-.06.112-.06.252 0 .246-.359 1.648-.964 3.802-.511 1.834-.631 2.193-.724 2.193-.066 0-.1.133-.12.412-.02.279-.219 1.017-.611 2.24-4.207 13.086-10.282 25.667-18.224 37.704-1.661 2.518-3.928 5.768-5.41 7.742l-.352.472-.193-.14c-.113-.08-.186-.199-.186-.292 0-.133-.033-.153-.233-.153-.14 0-.471-.12-.864-.312-.518-.26-.631-.346-.631-.465 0-.14-.033-.153-.339-.153-.253 0-.572-.093-1.276-.372-.519-.206-.97-.4-1.01-.432a.261.261 0 0 0-.16-.06c-.086 0-2.24-.724-2.565-.864a39.46 39.46 0 0 0-1.396-.439c-.691-.212-1.27-.405-1.283-.438-.013-.027-.086-.054-.166-.054s-.565-.12-1.076-.265c-.512-.153-1.057-.273-1.21-.273-.312-.007-.651.186-.718.405-.026.074-.086.133-.14.133-.066 0-.093.093-.093.366 0 .332.014.365.153.365.12.007.293.24.898 1.19.465.745.744 1.25.744 1.356 0 .126.033.18.12.18.14 0 1.608 2.299 1.608 2.518 0 .073.04.14.093.14.173 0 6.766 10.66 11.225 18.144 8.182 13.738 14.602 25.408 20.836 37.883 2.858 5.71 4.5 9.145 6.673 13.924.778 1.715 1.469 3.137 1.562 3.237a.77.77 0 0 0 1.13-.033c.08-.08.644-1.27 1.27-2.639 9.696-21.394 23.221-45.746 40.534-72.995 1.044-1.642 1.928-3.084 1.968-3.204.086-.285.013-.538-.213-.77-.306-.306-.518-.3-1.662.04-.598.172-1.163.298-1.349.298-.232 0-.319.027-.319.093 0 .12-1.808.712-2.306.758-.2.013-.352.06-.352.106 0 .1-2.16.838-2.44.838-.139 0-.219.033-.219.086s-.365.233-.864.432c-.77.306-.924.346-1.362.346h-.499v.232c0 .226-.02.246-.478.466-.379.186-.565.232-.864.232h-.386v.266c0 .146-.026.266-.053.266-.126 0-3.183-4.293-5.098-7.151-13.1-19.54-21.234-40.476-24.391-62.734-.326-2.313-.631-4.938-.631-5.43 0-.472-.133-.804-.4-.997-.232-.166-.524-.206-.763-.093zm.85 42.855c.14.89.253 1.848.246 2.127 0 .405.02.518.093.518.067 0 .12.12.166.346.479 2.439.672 3.529.672 3.788 0 .18.026.32.066.32.073 0 .087.046.492 1.86.166.751.306 1.429.306 1.515 0 .08.026.2.066.266.106.193.798 2.971.798 3.224 0 .126.026.246.066.259.033.007.286.797.558 1.748 2.42 8.447 5.836 16.994 9.737 24.352.372.704.658 1.309.625 1.335a45.64 45.64 0 0 1-.917.738c-4.845 3.875-9.578 8.647-13.053 13.173l-.552.711-.791-1.043c-3.316-4.374-7.377-8.554-12.023-12.376a87.929 87.929 0 0 0-1.323-1.07l-.226-.173.851-1.621c6.434-12.269 11.14-26.233 13.598-40.363.12-.684.233-1.242.26-1.242.02 0 .152.724.285 1.608z"/></g><g><path d="M2473.418 16.019c-.24.084-2.274 1.512-6.453 4.53-18.31 13.219-34.911 26.828-49.538 40.608-3.95 3.728-10.683 10.396-14.144 14.02-11.081 11.59-20.585 22.99-29.032 34.808-2.21 3.09-3.285 4.673-3.364 4.94-.032.137-.065.815-.065 1.512.007 14.354 7.34 34.084 21.986 59.153 1.701 2.913 2.738 4.628 2.9 4.804.327.352.783.397 1.135.098.091-.079.69-.763 1.33-1.513a237.689 237.689 0 0 1 4.908-5.605c18.811-20.904 41.325-39.474 67.248-55.457.964-.6 1.805-1.088 1.857-1.088.105 0 1.897 1.453 3.611 2.926 11.681 10.025 21.12 22.331 27.703 36.117.867 1.806 1.336 2.842 1.336 2.927 0 .117-4.146 4.55-7.724 8.246-5.704 5.898-15.429 15.598-24.313 24.254-3.624 3.533-3.409 3.304-3.455 3.578-.078.391.007.626.678 1.819 3.083 5.468 6.988 9.881 11.472 12.964.554.378.737.47.991.496.404.039.365.058 2.405-1.486 13.838-10.501 26.073-20.435 35.524-28.843 4.739-4.211 7.75-7.053 12.033-11.335 3.878-3.892 3.996-4.022 3.917-4.517-.071-.411-2.698-5.684-4.784-9.602-11.048-20.702-25.89-41.032-44.174-60.488-3.637-3.866-9.353-9.654-12.625-12.783-1.48-1.414-1.584-1.486-2.021-1.362-.502.144-12.932 9.862-21.666 16.934-8.376 6.799-19.45 16.048-27.279 22.794-.626.541-1.89 1.623-2.803 2.412a1377.239 1377.239 0 0 0-9.738 8.474c-3.878 3.396-3.898 3.415-3.852 3.278.013-.045.306-.97.645-2.053 9.08-28.778 28.074-58.69 56.356-88.758 3.155-3.363 9.139-9.49 9.263-9.49.058 0 2.229 2.392 4.888 5.377 30.557 34.332 56.839 71.59 78.91 111.852a628.703 628.703 0 0 1 19.612 38.966 636.598 636.598 0 0 1 11.381 26.248c.502 1.239.958 2.334 1.01 2.432.196.39.783.554 1.141.32.176-.112 1.323-1.468 4.387-5.163 13.375-16.146 22.338-28.042 27.018-35.883.893-1.499 1.003-1.734.951-2.04-.071-.443-3.155-5.866-6.283-11.061-27.592-45.764-69.908-91.268-126.296-135.806-6.773-5.345-15.924-12.365-16.367-12.554-.268-.111-.326-.111-.62 0z"/><path d="M2356.73 131.481c-.176.111-1.323 1.467-4.387 5.163-13.375 16.145-22.337 28.041-27.018 35.882-.893 1.5-1.003 1.734-.951 2.04.072.444 3.155 5.867 6.283 11.062 27.592 45.764 69.908 91.267 126.296 135.806 7.099 5.606 15.95 12.384 16.407 12.567.215.085.28.085.528 0 .286-.091 2.033-1.31 6.505-4.543 18.31-13.219 34.911-26.829 49.538-40.608 3.95-3.729 10.683-10.397 14.144-14.021 11.081-11.59 20.585-22.99 29.032-34.807 2.21-3.09 3.285-4.674 3.364-4.94.032-.138.065-.816.065-1.513-.007-14.353-7.34-34.084-21.986-59.152-1.701-2.914-2.738-4.628-2.9-4.804-.327-.352-.783-.398-1.135-.098-.091.078-.69.756-1.33 1.512a237.29 237.29 0 0 1-4.908 5.606c-18.811 20.904-41.325 39.474-67.248 55.456-.964.6-1.805 1.089-1.857 1.089-.105 0-1.897-1.454-3.611-2.927-11.681-10.025-21.12-22.331-27.703-36.117-.866-1.805-1.336-2.842-1.336-2.927 0-.117 4.146-4.55 7.724-8.245 5.704-5.899 15.429-15.598 24.313-24.254 3.624-3.533 3.409-3.305 3.455-3.579.078-.39-.007-.625-.678-1.818-3.083-5.469-6.988-9.882-11.472-12.965-.554-.378-.737-.47-.991-.495-.404-.04-.365-.059-2.405 1.486-13.838 10.5-26.073 20.434-35.524 28.843-4.739 4.21-7.75 7.052-12.033 11.335-3.878 3.891-3.995 4.022-3.917 4.517.071.41 2.698 5.684 4.784 9.601 11.048 20.702 25.89 41.032 44.174 60.489 3.637 3.865 9.353 9.653 12.625 12.782 1.48 1.414 1.584 1.486 2.021 1.362.502-.143 12.932-9.862 21.667-16.934 8.375-6.798 19.45-16.048 27.278-22.794.626-.541 1.89-1.623 2.803-2.412 2.861-2.464 5.964-5.162 9.738-8.473 3.878-3.396 3.898-3.416 3.852-3.279-.013.046-.306.971-.645 2.053-9.08 28.778-28.074 58.69-56.356 88.758-3.155 3.364-9.139 9.49-9.262 9.49-.06 0-2.23-2.392-4.89-5.377-30.556-34.331-56.838-71.589-78.908-111.852a628.727 628.727 0 0 1-19.613-38.965 636.703 636.703 0 0 1-11.381-26.249c-.502-1.238-.958-2.333-1.01-2.431-.196-.391-.782-.554-1.141-.32z"/></g></g></svg>