<svg width="1150" height="400" xmlns="http://www.w3.org/2000/svg">
 <g>
  <title>Layer 1</title>
  <g id="svg_4" stroke-width="0" stroke="null">
   <g id="svg_1" stroke="null">
    <metadata fill="#BBBBBB" id="svg_3" stroke="#BBBBBB"/>
    <g id="svg_2" stroke="null">
     <rect id="svg_11" class="fil0" width="6.77521" height="69.10719" fill="#BBBBBB" y="168.03734" x="37.88847" stroke="#BBBBBB"/>
     <rect id="svg_13" class="fil0" x="51.10014" width="2.37133" height="69.10719" fill="#BBBBBB" y="168.03734" stroke="#BBBBBB"/>
     <path id="svg_27" class="fil0" d="m53.47146,202.59094c4.74265,-2.71009 6.09769,-6.09769 8.46902,-12.19539c4.06513,7.45274 10.50158,5.75893 11.85663,5.42017c1.01628,-0.33876 1.6938,-1.01628 3.72637,-4.40389c2.37133,-3.38761 3.38761,-15.58299 -2.03256,-19.30936c-5.08141,-3.38761 -9.14654,-1.6938 -11.1791,-0.67752c-1.6938,1.01628 -2.71009,3.04885 -2.71009,3.38761c0,0.33876 0.67752,0.33876 1.01628,0.33876c1.01628,-0.33876 5.42017,-1.01628 5.75893,3.04885c0,4.06513 -2.71009,4.74265 -4.74265,4.74265c-2.37133,0 -6.09769,-1.6938 -4.06513,-8.13026c2.37133,-6.43645 8.80778,-6.77521 13.88919,-6.77521c4.74265,0 13.88919,4.40389 13.88919,15.92175c0,11.51786 -9.14654,15.24423 -13.21167,15.24423c-4.40389,0 -7.45274,-0.67752 -9.4853,-2.37133c-0.67752,2.03256 -1.35504,4.74265 -3.38761,5.75893c2.03256,1.35504 2.71009,4.06513 3.38761,5.75893c2.03256,-1.35504 5.08141,-2.37133 9.4853,-2.37133c4.06513,0 13.21167,4.06513 13.21167,15.58299c0,11.51786 -9.14654,15.92175 -13.88919,15.92175c-5.08141,0 -11.51786,-0.33876 -13.88919,-6.77521c-2.03256,-6.43645 1.6938,-8.13026 4.06513,-8.13026c2.03256,0 4.74265,0.67752 4.74265,4.74265c-0.33876,4.06513 -4.74265,3.04885 -5.75893,3.04885c-0.33876,0 -1.01628,0 -1.01628,0c0,0.67752 1.01628,2.71009 2.71009,3.72637c2.03256,1.01628 6.09769,2.71009 11.1791,-1.01628c5.42017,-3.38761 4.40389,-15.92175 2.03256,-19.30936c-2.03256,-3.38761 -2.71009,-3.72637 -3.72637,-4.06513c-1.35504,-0.67752 -7.7915,-2.37133 -11.85663,5.08141c-2.37133,-5.75893 -3.72637,-9.14654 -8.46902,-12.19539l0,0.00002z" fill="#BBBBBB" stroke="#BBBBBB"/>
    </g>
   </g>
  </g>
  <g id="svg_28" stroke-width="0" stroke="null">
   <g id="svg_5" stroke="null">
    <metadata fill="#BBBBBB" id="svg_7" stroke="#BBBBBB"/>
    <g id="svg_6" stroke="null">
     <path id="svg_29" class="fil0" d="m50.4768,317.70435c-1.39594,0.34899 -2.4429,1.04696 -2.79188,0c-0.34899,-0.69797 0.69797,-3.14087 3.14087,-4.88579c2.79188,-2.09391 7.32869,-3.48985 10.81854,-1.74493c3.48985,1.39594 6.28173,6.28173 6.28173,12.21448c0.34899,6.28173 -2.09391,13.61042 -6.9797,20.24114c-4.88579,6.28173 -11.86549,11.86549 -14.65738,13.9594c-2.79188,2.4429 -1.04696,1.39594 2.09391,-0.34899c3.48985,-1.39594 8.72463,-3.83884 13.61042,-7.67767c5.23478,-3.83884 10.46955,-9.4226 12.91245,-16.05332c2.09391,-6.28173 1.39594,-13.61042 -2.4429,-18.8452c-3.83884,-4.88579 -11.16752,-7.67767 -17.10027,-6.28173c-6.28173,1.74493 -11.16752,7.67767 -11.16752,12.56346c0,4.88579 4.53681,8.37564 8.02666,8.37564c3.48985,0 5.58376,-3.48985 5.93275,-6.28173c0,-2.4429 -2.4429,-4.18782 -3.83884,-4.88579c-1.74493,-1.04696 -2.79188,-0.69797 -3.83884,-0.34899l0,0.00002z" fill="#BBBBBB" stroke="#BBBBBB"/>
     <circle id="svg_30" class="fil0" cx="82.23444" cy="318.05334" r="3.14074" fill="#BBBBBB" stroke="#BBBBBB"/>
     <circle id="svg_31" class="fil0" cx="82.23444" cy="331.66376" r="3.14074" fill="#BBBBBB" stroke="#BBBBBB"/>
    </g>
   </g>
  </g>
  <g id="svg_32" stroke-width="0" stroke="null">
   <g id="svg_8" stroke="null">
    <metadata fill="#BBBBBB" id="svg_9" stroke="#BBBBBB"/>
    <path id="svg_33" class="fil0" d="m61.49733,48.80376c0,-0.68076 0,-1.36152 0,-2.38266c-0.68076,-3.4038 -1.02114,-8.16912 0.34038,-11.9133c1.36152,-3.74418 4.42494,-6.12684 6.8076,-5.78646c2.04228,0.34038 3.06342,3.4038 2.04228,7.14798c-1.36152,4.76532 -5.78646,9.53064 -9.19026,12.93444zm9.87102,44.93014c2.04228,-1.02114 3.74418,-2.04228 5.1057,-3.4038c4.08456,-4.08456 5.1057,-10.55178 3.06342,-15.31709c-2.38266,-5.1057 -8.5095,-8.84988 -13.95558,-7.82874c-0.68076,-3.74418 -1.7019,-7.14798 -2.38266,-10.55178c4.76532,-4.76532 9.19026,-9.19026 9.87102,-15.99785c1.02114,-7.82874 -2.04228,-18.38051 -5.78646,-20.08241c-3.4038,-1.7019 -7.48836,5.44608 -8.5095,13.27482c-0.68076,5.44608 0,11.57292 1.02114,17.01899c-4.42494,4.08456 -9.53064,8.84988 -12.25368,13.95558c-3.4038,6.46722 -4.08456,13.6152 -1.36152,19.06127c2.38266,5.78646 8.16912,9.87102 13.95558,10.89216c3.06342,0.68076 6.12684,0.68076 8.84988,-0.34038c0.34038,1.02114 0.34038,2.04228 0.68076,2.72304c1.7019,8.84988 2.38266,10.89216 1.7019,12.93444c-0.68076,2.04228 -2.38266,3.74418 -4.08456,4.76532c-1.7019,0.68076 -3.74418,1.02114 -5.44608,0.68076c-2.04228,-0.34038 -3.4038,-1.02114 -3.4038,-1.7019c0.34038,-0.34038 2.04228,-0.34038 3.74418,-1.02114c1.36152,-0.68076 2.04228,-1.7019 2.38266,-3.06342c1.02114,-4.08456 -2.72304,-7.48836 -6.46722,-6.8076c-2.38266,0.34038 -5.1057,2.38266 -5.44608,5.78646c0,3.06342 2.38266,6.8076 6.46722,8.16912c2.38266,1.02114 5.44608,0.68076 7.82874,0c1.7019,-0.34038 3.4038,-1.36152 4.76532,-2.72304c2.72304,-2.72304 2.38266,-7.48836 0.68076,-14.97671c0,-1.7019 -0.68076,-3.74418 -1.02114,-5.44608l0,-0.00002zm-2.72304,-1.36152c-1.7019,0.68076 -3.74418,0.68076 -6.46722,0.68076c-2.72304,-0.34038 -6.8076,-1.36152 -9.53064,-4.08456c-2.72304,-3.06342 -4.76532,-7.82874 -3.06342,-13.6152c1.7019,-5.44608 6.8076,-11.57292 11.9133,-16.67861c0,1.02114 0.34038,2.04228 0.34038,2.72304c0.68076,2.04228 1.02114,4.08456 1.36152,6.12684c-2.38266,1.02114 -4.76532,3.06342 -6.12684,4.76532c-1.7019,2.72304 -2.04228,5.44608 -1.7019,7.48836c0.34038,2.04228 1.02114,3.74418 2.04228,4.76532c1.02114,1.36152 2.04228,2.38266 3.4038,3.06342c1.36152,0.68076 2.72304,1.36152 3.06342,1.02114c0.34038,0 -0.34038,-1.02114 -1.7019,-2.38266c-1.7019,-1.02114 -3.74418,-3.06342 -3.4038,-5.44608c0.68076,-2.38266 3.06342,-5.1057 6.12684,-6.46722c1.02114,6.12684 2.38266,12.25368 3.74418,18.04013zm2.38266,-0.68076c-1.36152,-6.12684 -2.72304,-11.9133 -4.08456,-18.04013c3.4038,-0.34038 6.46722,1.36152 7.82874,3.74418c2.04228,2.72304 1.7019,7.14798 0.68076,9.87102c-1.02114,2.04228 -2.72304,3.4038 -4.42494,4.42494l0,-0.00001z" fill="#BBBBBB" stroke="#BBBBBB"/>
   </g>
  </g>
  <path stroke-width="1.5" fill="none" stroke="#BBBBBB" stroke-linejoin="undefined" stroke-linecap="undefined" opacity="0.5" d="m118,39.60001l999,0" id="svg_10"/>
  <path stroke-width="1.5" fill="none" stroke="#BBBBBB" stroke-linejoin="undefined" stroke-linecap="undefined" opacity="0.5" d="m118,365.62l999,0" id="svg_12"/>
  <path stroke-width="1.5" fill="none" stroke="#BBBBBB" stroke-linejoin="undefined" stroke-linecap="undefined" opacity="0.5" d="m118,53.64l999,0" id="svg_14"/>
  <path stroke-width="1.5" fill="none" stroke="#BBBBBB" stroke-linejoin="undefined" stroke-linecap="undefined" opacity="0.5" d="m118,67.33l999,0" id="svg_15"/>
  <path stroke-width="1.5" fill="none" stroke="#BBBBBB" stroke-linejoin="undefined" stroke-linecap="undefined" opacity="0.5" d="m118,81.72l999,0" id="svg_16"/>
  <path stroke-width="1.5" fill="none" stroke="#BBBBBB" stroke-linejoin="undefined" stroke-linecap="undefined" opacity="0.5" d="m118,96.44l999,0" id="svg_17"/>
  <path stroke-width="1.5" fill="none" stroke="#BBBBBB" stroke-linejoin="undefined" stroke-linecap="undefined" opacity="0.5" d="m118,173.50l999,0" id="svg_18"/>
  <path stroke-width="1.5" fill="none" stroke="#BBBBBB" stroke-linejoin="undefined" stroke-linecap="undefined" opacity="0.5" d="m118,187.54l999,0" id="svg_19"/>
  <path stroke-width="1.5" fill="none" stroke="#BBBBBB" stroke-linejoin="undefined" stroke-linecap="undefined" opacity="0.5" d="m118,201.92l999,0" id="svg_20"/>
  <path stroke-width="1.5" fill="none" stroke="#BBBBBB" stroke-linejoin="undefined" stroke-linecap="undefined" opacity="0.5" d="m118,216.99l999,0" id="svg_21"/>
  <path stroke-width="1.5" fill="none" stroke="#BBBBBB" stroke-linejoin="undefined" stroke-linecap="undefined" opacity="0.5" d="m118,231.03l999,0" id="svg_22"/>
  <path stroke-width="1.5" fill="none" stroke="#BBBBBB" stroke-linejoin="undefined" stroke-linecap="undefined" opacity="0.5" d="m118,307.40l999,0" id="svg_23"/>
  <path stroke-width="1.5" fill="none" stroke="#BBBBBB" stroke-linejoin="undefined" stroke-linecap="undefined" opacity="0.5" d="m118,321.79l999,0" id="svg_24"/>
  <path stroke-width="1.5" fill="none" stroke="#BBBBBB" stroke-linejoin="undefined" stroke-linecap="undefined" opacity="0.5" d="m118,336.51l999,0" id="svg_25"/>
  <path stroke-width="1.5" fill="none" stroke="#BBBBBB" stroke-linejoin="undefined" stroke-linecap="undefined" opacity="0.5" d="m118,350.55l999,0" id="svg_26"/>
 </g>

</svg>